<svg xmlns="http://www.w3.org/2000/svg" xmlns:xlink="http://www.w3.org/1999/xlink" width="500" zoomAndPan="magnify" viewBox="0 0 375 374.999991" height="500" preserveAspectRatio="xMidYMid meet" version="1.0"><defs><clipPath id="1fc9b1f812"><path d="M 3.300781 138 L 17 138 L 17 147 L 3.300781 147 Z M 3.300781 138 " clip-rule="nonzero"/></clipPath><clipPath id="68abefd54a"><path d="M 3.300781 232 L 17 232 L 17 242 L 3.300781 242 Z M 3.300781 232 " clip-rule="nonzero"/></clipPath><clipPath id="a99f7c97a2"><path d="M 358 138 L 371.550781 138 L 371.550781 147 L 358 147 Z M 358 138 " clip-rule="nonzero"/></clipPath><clipPath id="61bc934bb3"><path d="M 358 232 L 371.550781 232 L 371.550781 242 L 358 242 Z M 358 232 " clip-rule="nonzero"/></clipPath></defs><path fill="#a5d6c1" d="M 211.480469 332.800781 L 314.613281 332.800781 C 317.289062 332.800781 319.519531 334.96875 319.519531 337.640625 C 319.519531 340.316406 317.351562 342.484375 314.613281 342.484375 L 211.480469 342.484375 L 211.480469 332.738281 Z M 211.480469 332.800781 " fill-opacity="1" fill-rule="evenodd"/><path fill="#a5d6c1" d="M 60.441406 332.800781 L 163.574219 332.800781 L 163.574219 342.546875 L 60.441406 342.546875 C 57.765625 342.546875 55.535156 340.382812 55.535156 337.707031 C 55.535156 335.03125 57.703125 332.863281 60.441406 332.863281 Z M 60.441406 332.800781 " fill-opacity="1" fill-rule="evenodd"/><path fill="#a5d6c1" d="M 211.480469 313.308594 L 265.5 313.308594 C 268.175781 313.308594 270.339844 315.472656 270.339844 318.148438 C 270.339844 320.824219 268.175781 322.992188 265.5 322.992188 L 211.480469 322.992188 L 211.480469 313.246094 Z M 211.480469 313.308594 " fill-opacity="1" fill-rule="evenodd"/><path fill="#a5d6c1" d="M 109.554688 313.308594 L 163.574219 313.308594 L 163.574219 323.054688 L 109.554688 323.054688 C 106.878906 323.054688 104.714844 320.886719 104.714844 318.214844 C 104.714844 315.539062 106.878906 313.371094 109.554688 313.371094 Z M 109.554688 313.308594 " fill-opacity="1" fill-rule="evenodd"/><path fill="#a5d6c1" d="M 199.949219 194.820312 C 199.566406 184.949219 195.042969 175.648438 187.527344 169.148438 C 180.011719 175.582031 175.488281 184.882812 175.105469 194.820312 C 174.722656 204.757812 178.480469 214.378906 185.488281 221.386719 L 187.589844 188.578125 L 189.695312 221.386719 C 196.699219 214.378906 200.460938 204.757812 200.078125 194.820312 Z M 199.949219 194.820312 " fill-opacity="1" fill-rule="evenodd"/><path fill="#a5d6c1" d="M 179.246094 167.109375 C 182.558594 160.804688 183.070312 153.414062 180.710938 146.726562 C 173.703125 148 167.589844 152.203125 163.832031 158.191406 C 160.070312 164.179688 158.925781 171.507812 160.773438 178.386719 L 173.832031 158.765625 L 163.382812 179.851562 C 170.265625 178.003906 175.996094 173.355469 179.308594 167.109375 Z M 179.246094 167.109375 " fill-opacity="1" fill-rule="evenodd"/><path fill="#a5d6c1" d="M 169.5625 140.484375 C 171.601562 136.535156 171.921875 131.949219 170.457031 127.808594 C 166.125 128.636719 162.300781 131.183594 159.945312 134.941406 C 157.585938 138.699219 156.886719 143.222656 158.035156 147.492188 L 166.1875 135.261719 L 159.691406 148.382812 C 163.957031 147.234375 167.589844 144.371094 169.628906 140.417969 Z M 169.5625 140.484375 " fill-opacity="1" fill-rule="evenodd"/><path fill="#a5d6c1" d="M 165.742188 121.183594 C 167.78125 117.296875 168.097656 112.644531 166.632812 108.503906 C 162.300781 109.332031 158.480469 111.882812 156.121094 115.640625 C 153.765625 119.398438 153.066406 123.921875 154.210938 128.1875 L 162.300781 115.957031 L 155.804688 129.082031 C 160.070312 127.933594 163.640625 125.066406 165.742188 121.117188 Z M 165.742188 121.183594 " fill-opacity="1" fill-rule="evenodd"/><path fill="#a5d6c1" d="M 167.90625 98.820312 C 172.046875 95.128906 174.46875 89.839844 174.53125 84.296875 C 169.054688 83.34375 163.449219 84.742188 158.988281 88.121094 C 154.59375 91.496094 151.726562 96.59375 151.21875 102.070312 L 166.125 91.242188 L 152.683594 103.855469 C 158.222656 104.363281 163.703125 102.515625 167.84375 98.824219 Z M 167.90625 98.820312 " fill-opacity="1" fill-rule="evenodd"/><path fill="#a5d6c1" d="M 170.265625 77.800781 C 173.703125 76.589844 176.507812 74.042969 177.972656 70.730469 C 174.914062 68.753906 171.15625 68.117188 167.652344 69.007812 C 164.148438 69.902344 161.089844 72.257812 159.371094 75.445312 L 171.15625 72.703125 L 159.816406 76.84375 C 163.003906 78.566406 166.824219 78.882812 170.265625 77.738281 Z M 170.265625 77.800781 " fill-opacity="1" fill-rule="evenodd"/><path fill="#008c51" d="M 177.015625 25.4375 C 177.910156 21.933594 177.335938 18.175781 175.359375 15.054688 C 172.046875 16.519531 169.4375 19.320312 168.289062 22.761719 C 167.078125 26.203125 167.398438 29.960938 169.117188 33.207031 L 173.320312 21.871094 L 170.582031 33.65625 C 173.769531 31.933594 176.125 28.941406 177.082031 25.375 Z M 177.015625 25.4375 " fill-opacity="1" fill-rule="evenodd"/><path fill="#008c51" d="M 161.410156 36.457031 C 161.472656 32.445312 159.878906 28.558594 157.015625 25.753906 C 153.828125 28.175781 151.726562 31.871094 151.34375 35.820312 C 150.960938 39.832031 152.238281 43.785156 154.910156 46.839844 L 156.566406 33.589844 L 156.632812 46.90625 C 159.625 44.230469 161.410156 40.40625 161.472656 36.394531 Z M 161.410156 36.457031 " fill-opacity="1" fill-rule="evenodd"/><path fill="#008c51" d="M 150.835938 49.007812 C 149.625 45.183594 146.886719 42 143.316406 40.214844 C 141.023438 43.527344 140.261719 47.667969 141.089844 51.554688 C 141.980469 55.503906 144.464844 58.882812 147.90625 60.855469 L 145.292969 47.796875 L 149.496094 60.410156 C 151.535156 56.90625 151.980469 52.765625 150.835938 48.941406 Z M 150.835938 49.007812 " fill-opacity="1" fill-rule="evenodd"/><path fill="#008c51" d="M 140.832031 59.710938 C 138.539062 55.570312 134.589844 52.511719 129.941406 51.363281 C 128.09375 55.757812 128.15625 60.726562 130.132812 65.058594 C 132.105469 69.390625 135.800781 72.703125 140.324219 74.234375 L 134.144531 59.710938 L 142.109375 73.339844 C 143.574219 68.820312 143.128906 63.851562 140.832031 59.710938 Z M 140.832031 59.710938 " fill-opacity="1" fill-rule="evenodd"/><path fill="#008c51" d="M 133.570312 77.546875 C 131.277344 73.40625 127.328125 70.347656 122.679688 69.199219 C 120.832031 73.597656 120.894531 78.566406 122.871094 82.898438 C 124.84375 87.226562 128.539062 90.539062 133.0625 92.070312 L 126.882812 77.546875 L 134.847656 91.179688 C 136.3125 86.65625 135.863281 81.6875 133.570312 77.546875 Z M 133.570312 77.546875 " fill-opacity="1" fill-rule="evenodd"/><path fill="#008c51" d="M 129.429688 97.164062 C 127.136719 93.023438 123.1875 89.96875 118.539062 88.820312 C 116.691406 93.214844 116.753906 98.183594 118.730469 102.515625 C 120.703125 106.847656 124.398438 110.160156 128.921875 111.691406 L 122.742188 97.164062 L 130.703125 110.796875 C 132.171875 106.277344 131.722656 101.308594 129.429688 97.164062 Z M 129.429688 97.164062 " fill-opacity="1" fill-rule="evenodd"/><path fill="#008c51" d="M 114.398438 88.949219 C 114.398438 85.953125 113.1875 83.085938 111.019531 81.050781 C 108.664062 82.898438 107.136719 85.636719 106.878906 88.628906 C 106.625 91.625 107.582031 94.554688 109.621094 96.785156 L 110.765625 86.910156 L 110.894531 96.847656 C 113.125 94.808594 114.398438 92.007812 114.398438 89.011719 Z M 114.398438 88.949219 " fill-opacity="1" fill-rule="evenodd"/><path fill="#008c51" d="M 106.816406 78.375 C 107.515625 75.445312 106.945312 72.386719 105.289062 69.902344 C 102.546875 71.175781 100.511719 73.46875 99.554688 76.335938 C 98.597656 79.203125 98.917969 82.324219 100.382812 84.933594 L 103.695312 75.570312 L 101.59375 85.253906 C 104.203125 83.789062 106.117188 81.304688 106.816406 78.375 Z M 106.816406 78.375 " fill-opacity="1" fill-rule="evenodd"/><path fill="#008c51" d="M 102.867188 66.523438 C 104.460938 63.976562 104.96875 60.917969 104.203125 57.988281 C 101.210938 58.308594 98.535156 59.835938 96.6875 62.257812 C 94.90625 64.679688 94.140625 67.671875 94.714844 70.664062 L 100.890625 62.894531 L 95.796875 71.429688 C 98.726562 70.855469 101.339844 69.136719 102.929688 66.589844 Z M 102.867188 66.523438 " fill-opacity="1" fill-rule="evenodd"/><path fill="#008c51" d="M 100.191406 54.421875 C 101.65625 53.148438 102.546875 51.300781 102.613281 49.324219 C 100.703125 48.941406 98.726562 49.390625 97.132812 50.597656 C 95.542969 51.746094 94.523438 53.53125 94.332031 55.503906 L 99.617188 51.746094 L 94.839844 56.140625 C 96.816406 56.332031 98.726562 55.757812 100.191406 54.421875 Z M 100.191406 54.421875 " fill-opacity="1" fill-rule="evenodd"/><path fill="#008c51" d="M 102.738281 43.785156 C 104.203125 42.507812 105.097656 40.660156 105.160156 38.6875 C 103.25 38.304688 101.210938 38.816406 99.683594 39.960938 C 98.089844 41.109375 97.070312 42.890625 96.878906 44.867188 L 102.167969 41.109375 L 97.390625 45.503906 C 99.363281 45.695312 101.273438 45.121094 102.738281 43.785156 Z M 102.738281 43.785156 " fill-opacity="1" fill-rule="evenodd"/><path fill="#008c51" d="M 100.957031 35.4375 C 102.101562 33.847656 102.484375 31.871094 102.101562 29.894531 C 100.128906 30.023438 98.34375 30.914062 97.070312 32.378906 C 95.796875 33.910156 95.222656 35.820312 95.476562 37.796875 L 99.746094 32.890625 L 96.113281 38.242188 C 98.089844 37.988281 99.808594 36.902344 100.957031 35.3125 Z M 100.957031 35.4375 " fill-opacity="1" fill-rule="evenodd"/><path fill="#008c51" d="M 86.558594 40.28125 C 85.792969 38.496094 85.859375 36.457031 86.6875 34.675781 C 88.597656 35.183594 90.125 36.519531 91.019531 38.242188 C 91.910156 39.960938 92.039062 42 91.335938 43.847656 L 88.277344 38.113281 L 90.574219 44.164062 C 88.726562 43.464844 87.261719 42.0625 86.496094 40.214844 Z M 86.558594 40.28125 " fill-opacity="1" fill-rule="evenodd"/><path fill="#008c51" d="M 81.464844 48.050781 C 80.699219 46.269531 80.761719 44.230469 81.589844 42.445312 C 83.5 42.957031 85.03125 44.292969 85.921875 46.011719 C 86.8125 47.796875 86.941406 49.835938 86.242188 51.617188 L 83.183594 45.886719 L 85.476562 51.9375 C 83.628906 51.238281 82.164062 49.835938 81.464844 47.988281 Z M 81.464844 48.050781 " fill-opacity="1" fill-rule="evenodd"/><path fill="#008c51" d="M 77.703125 57.605469 C 76.8125 55.378906 76.8125 52.828125 77.832031 50.664062 C 80.1875 51.300781 82.101562 52.957031 83.183594 55.121094 C 84.265625 57.289062 84.394531 59.835938 83.566406 62.066406 L 79.808594 54.996094 L 82.671875 62.511719 C 80.378906 61.683594 78.597656 59.898438 77.703125 57.671875 Z M 77.703125 57.605469 " fill-opacity="1" fill-rule="evenodd"/><path fill="#008c51" d="M 76.75 69.835938 C 75.09375 68.054688 74.265625 65.695312 74.457031 63.277344 C 76.875 63.085938 79.234375 63.914062 81.015625 65.570312 C 82.800781 67.226562 83.820312 69.519531 83.820312 71.941406 L 77.832031 66.652344 L 83.121094 72.703125 C 80.699219 72.703125 78.40625 71.683594 76.75 69.902344 Z M 76.75 69.835938 " fill-opacity="1" fill-rule="evenodd"/><path fill="#008c51" d="M 76.046875 79.136719 C 74.390625 77.355469 73.5625 74.996094 73.820312 72.578125 C 76.238281 72.386719 78.597656 73.214844 80.378906 74.871094 C 82.164062 76.527344 83.183594 78.820312 83.183594 81.242188 L 77.195312 75.953125 L 82.480469 82.003906 C 80.0625 82.003906 77.769531 80.984375 76.113281 79.203125 Z M 76.046875 79.136719 " fill-opacity="1" fill-rule="evenodd"/><path fill="#008c51" d="M 73.054688 87.164062 C 71.398438 85.382812 70.570312 83.023438 70.761719 80.601562 C 73.183594 80.414062 75.539062 81.242188 77.324219 82.898438 C 79.105469 84.554688 80.125 86.847656 80.125 89.265625 L 74.136719 83.914062 L 79.425781 89.96875 C 77.003906 89.96875 74.710938 88.949219 73.054688 87.164062 Z M 73.054688 87.164062 " fill-opacity="1" fill-rule="evenodd"/><path fill="#008c51" d="M 63.5 87.800781 C 62.160156 85.761719 61.714844 83.277344 62.289062 80.921875 C 64.710938 81.113281 66.9375 82.324219 68.402344 84.234375 C 69.871094 86.144531 70.507812 88.566406 70.125 90.988281 L 65.027344 84.808594 L 69.296875 91.625 C 66.9375 91.242188 64.773438 89.839844 63.433594 87.867188 Z M 63.5 87.800781 " fill-opacity="1" fill-rule="evenodd"/><path fill="#008c51" d="M 55.664062 91.941406 C 53.945312 90.921875 52.667969 89.203125 52.222656 87.292969 C 54.136719 86.527344 56.171875 86.589844 58.019531 87.484375 C 59.867188 88.375 61.207031 89.96875 61.777344 91.878906 L 55.664062 89.140625 L 61.398438 92.644531 C 59.484375 93.214844 57.382812 93.023438 55.601562 92.007812 Z M 55.664062 91.941406 " fill-opacity="1" fill-rule="evenodd"/><path fill="#008c51" d="M 47.828125 95.382812 C 46.109375 94.363281 44.835938 92.644531 44.386719 90.730469 C 46.234375 89.96875 48.339844 90.03125 50.183594 90.921875 C 52.03125 91.816406 53.371094 93.40625 53.945312 95.320312 L 47.828125 92.578125 L 53.496094 96.082031 C 51.585938 96.65625 49.484375 96.402344 47.765625 95.445312 Z M 47.828125 95.382812 " fill-opacity="1" fill-rule="evenodd"/><path fill="#a5d6c1" d="M 50.121094 102.707031 C 48.210938 103.410156 46.109375 103.28125 44.324219 102.390625 C 44.960938 100.476562 46.363281 98.886719 48.148438 98.058594 C 49.996094 97.230469 52.097656 97.164062 53.945312 97.929688 L 47.957031 100.859375 L 54.261719 98.695312 C 53.496094 100.542969 51.96875 102.007812 50.058594 102.707031 Z M 50.121094 102.707031 " fill-opacity="1" fill-rule="evenodd"/><path fill="#a5d6c1" d="M 58.847656 104.171875 C 56.9375 104.875 54.835938 104.746094 53.050781 103.855469 C 53.6875 101.945312 55.089844 100.351562 56.875 99.523438 C 58.722656 98.695312 60.824219 98.632812 62.671875 99.394531 L 56.683594 102.324219 L 62.988281 100.160156 C 62.226562 102.007812 60.695312 103.472656 58.785156 104.171875 Z M 58.847656 104.171875 " fill-opacity="1" fill-rule="evenodd"/><path fill="#a5d6c1" d="M 70.058594 106.148438 C 67.957031 106.914062 65.664062 106.785156 63.753906 105.765625 C 64.453125 103.664062 65.917969 101.945312 67.957031 100.988281 C 69.933594 100.03125 72.226562 100.03125 74.265625 100.859375 L 67.703125 104.109375 L 74.582031 101.753906 C 73.753906 103.792969 72.097656 105.382812 69.996094 106.148438 Z M 70.058594 106.148438 " fill-opacity="1" fill-rule="evenodd"/><path fill="#a5d6c1" d="M 78.980469 109.777344 C 76.558594 110.671875 73.820312 110.542969 71.460938 109.332031 C 72.289062 106.847656 74.074219 104.808594 76.429688 103.726562 C 78.789062 102.644531 81.527344 102.582031 83.949219 103.535156 L 76.175781 107.359375 L 84.394531 104.554688 C 83.375 106.976562 81.464844 108.886719 78.980469 109.777344 Z M 78.980469 109.777344 " fill-opacity="1" fill-rule="evenodd"/><path fill="#a5d6c1" d="M 87.324219 119.078125 C 83.757812 120.417969 79.742188 120.164062 76.304688 118.441406 C 77.449219 114.8125 80.125 111.816406 83.628906 110.160156 C 87.132812 108.570312 91.082031 108.441406 94.648438 109.90625 L 83.246094 115.511719 L 95.222656 111.371094 C 93.757812 114.9375 90.890625 117.679688 87.261719 119.015625 Z M 87.324219 119.078125 " fill-opacity="1" fill-rule="evenodd"/><path fill="#a5d6c1" d="M 96.242188 127.679688 C 92.675781 129.015625 88.660156 128.761719 85.222656 127.042969 C 86.433594 123.410156 89.042969 120.417969 92.546875 118.761719 C 96.050781 117.167969 100 117.042969 103.566406 118.507812 L 92.164062 124.113281 L 104.203125 119.972656 C 102.738281 123.539062 99.875 126.277344 96.242188 127.617188 Z M 96.242188 127.679688 " fill-opacity="1" fill-rule="evenodd"/><path fill="#a5d6c1" d="M 102.359375 138.316406 C 98.535156 138.125 94.96875 136.34375 92.484375 133.414062 C 94.96875 130.546875 98.597656 128.824219 102.421875 128.699219 C 106.242188 128.570312 109.9375 130.035156 112.675781 132.777344 L 100 133.476562 L 112.675781 134.367188 C 109.9375 137.042969 106.179688 138.445312 102.359375 138.253906 Z M 102.359375 138.316406 " fill-opacity="1" fill-rule="evenodd"/><path fill="#a5d6c1" d="M 113.503906 152.078125 C 109.683594 151.886719 106.117188 150.101562 103.632812 147.171875 C 106.117188 144.304688 109.746094 142.585938 113.570312 142.457031 C 117.390625 142.332031 121.085938 143.796875 123.824219 146.535156 L 111.148438 147.234375 L 123.824219 148.128906 C 121.085938 150.804688 117.328125 152.269531 113.503906 152.078125 Z M 113.503906 152.078125 " fill-opacity="1" fill-rule="evenodd"/><path fill="#a5d6c1" d="M 117.136719 167.046875 C 112.867188 165.964844 109.300781 163.097656 107.199219 159.210938 C 110.703125 156.535156 115.160156 155.515625 119.492188 156.28125 C 123.824219 157.046875 127.582031 159.59375 130.003906 163.289062 L 115.609375 161.058594 L 129.558594 165.074219 C 125.863281 167.429688 121.339844 168.128906 117.074219 167.046875 Z M 117.136719 167.046875 " fill-opacity="1" fill-rule="evenodd"/><path fill="#a5d6c1" d="M 90.699219 169.722656 C 86.6875 165.007812 84.839844 158.894531 85.605469 152.777344 C 91.78125 152.523438 97.707031 154.878906 102.101562 159.277344 C 106.433594 163.671875 108.792969 169.59375 108.535156 175.773438 L 93.820312 161.632812 L 106.6875 177.496094 C 100.511719 177.238281 94.777344 174.4375 90.765625 169.722656 Z M 90.699219 169.722656 " fill-opacity="1" fill-rule="evenodd"/><path fill="#a5d6c1" d="M 73.5 172.84375 C 70.570312 169.339844 69.167969 164.816406 69.679688 160.230469 C 74.265625 160.039062 78.722656 161.824219 81.910156 165.074219 C 85.15625 168.320312 86.878906 172.78125 86.6875 177.367188 L 75.730469 166.855469 L 85.285156 178.640625 C 80.699219 178.449219 76.429688 176.347656 73.4375 172.84375 Z M 73.5 172.84375 " fill-opacity="1" fill-rule="evenodd"/><path fill="#a5d6c1" d="M 53.371094 169.851562 C 51.394531 165.710938 51.140625 160.933594 52.796875 156.726562 C 57.257812 157.683594 61.140625 160.484375 63.433594 164.4375 C 65.730469 168.386719 66.300781 173.097656 65.027344 177.496094 L 57 164.625 L 63.308594 178.449219 C 58.914062 177.113281 55.28125 174.054688 53.308594 169.914062 Z M 53.371094 169.851562 " fill-opacity="1" fill-rule="evenodd"/><path fill="#a5d6c1" d="M 36.808594 157.621094 C 36.617188 153.03125 38.398438 148.574219 41.585938 145.386719 C 45.28125 148.0625 47.699219 152.203125 48.273438 156.726562 C 48.847656 161.25 47.445312 165.835938 44.453125 169.339844 L 42.285156 154.308594 L 42.542969 169.46875 C 39.039062 166.472656 37 162.207031 36.808594 157.621094 Z M 36.808594 157.621094 " fill-opacity="1" fill-rule="evenodd"/><path fill="#a5d6c1" d="M 27.445312 149.210938 C 27.316406 146.535156 28.335938 143.921875 30.246094 142.011719 C 32.414062 143.605469 33.8125 146.027344 34.132812 148.636719 C 34.449219 151.3125 33.621094 153.988281 31.902344 156.027344 L 30.628906 147.234375 L 30.757812 156.15625 C 28.71875 154.433594 27.507812 151.886719 27.378906 149.210938 Z M 27.445312 149.210938 " fill-opacity="1" fill-rule="evenodd"/><path fill="#a5d6c1" d="M 18.015625 138 C 17.886719 135.324219 18.90625 132.710938 20.820312 130.800781 C 22.984375 132.394531 24.386719 134.8125 24.703125 137.488281 C 25.023438 140.164062 24.195312 142.839844 22.476562 144.878906 L 21.199219 136.089844 L 21.328125 145.007812 C 19.289062 143.285156 18.078125 140.738281 17.953125 138.0625 Z M 18.015625 138 " fill-opacity="1" fill-rule="evenodd"/><path fill="#a5d6c1" d="M 10.117188 129.207031 C 9.988281 126.53125 11.007812 123.921875 12.917969 122.011719 C 15.085938 123.601562 16.488281 126.023438 16.804688 128.699219 C 17.125 131.375 16.296875 134.050781 14.574219 136.089844 L 13.300781 127.296875 L 13.429688 136.214844 C 11.390625 134.433594 10.179688 131.949219 10.054688 129.273438 Z M 10.117188 129.207031 " fill-opacity="1" fill-rule="evenodd"/><g clip-path="url(#1fc9b1f812)"><path fill="#008c51" d="M 8.714844 145.578125 C 6.359375 144.304688 4.574219 142.140625 3.875 139.527344 C 6.292969 138.445312 9.097656 138.445312 11.582031 139.464844 C 14.066406 140.546875 15.976562 142.585938 16.867188 145.070312 L 8.585938 141.757812 L 16.359375 146.089844 C 13.8125 146.980469 11.007812 146.789062 8.652344 145.515625 Z M 8.714844 145.578125 " fill-opacity="1" fill-rule="evenodd"/></g><path fill="#008c51" d="M 11.773438 156.726562 C 9.414062 155.453125 7.632812 153.289062 6.929688 150.675781 C 9.414062 149.59375 12.15625 149.59375 14.640625 150.613281 C 17.125 151.695312 19.035156 153.734375 19.925781 156.21875 L 11.644531 152.90625 L 19.417969 157.238281 C 16.867188 158.128906 14.066406 157.9375 11.710938 156.664062 Z M 11.773438 156.726562 " fill-opacity="1" fill-rule="evenodd"/><path fill="#008c51" d="M 17.25 167.046875 C 14.382812 166.539062 11.773438 164.816406 10.242188 162.332031 C 12.472656 160.359375 15.402344 159.46875 18.335938 159.722656 C 21.265625 160.039062 23.941406 161.503906 25.722656 163.863281 L 15.976562 163.097656 L 25.53125 165.074219 C 23.175781 166.855469 20.179688 167.558594 17.25 167.046875 Z M 17.25 167.046875 " fill-opacity="1" fill-rule="evenodd"/><path fill="#008c51" d="M 24.894531 176.984375 C 21.964844 177.304688 19.035156 176.410156 16.804688 174.5 C 18.335938 172.015625 20.882812 170.234375 23.75 169.660156 C 26.617188 169.085938 29.671875 169.785156 32.03125 171.507812 L 22.476562 173.609375 L 32.222656 172.71875 C 30.5 175.074219 27.824219 176.667969 24.894531 176.984375 Z M 24.894531 176.984375 " fill-opacity="1" fill-rule="evenodd"/><path fill="#008c51" d="M 30.375 185.777344 C 27.445312 186.09375 24.511719 185.203125 22.285156 183.292969 C 23.8125 180.808594 26.359375 179.023438 29.226562 178.449219 C 32.09375 177.875 35.152344 178.578125 37.507812 180.296875 L 27.953125 182.398438 L 37.699219 181.507812 C 35.980469 183.863281 33.304688 185.457031 30.375 185.777344 Z M 30.375 185.777344 " fill-opacity="1" fill-rule="evenodd"/><path fill="#008c51" d="M 34.324219 194.183594 C 31.394531 194.503906 28.460938 193.613281 26.234375 191.699219 C 27.761719 189.214844 30.308594 187.433594 33.175781 186.859375 C 36.042969 186.285156 39.101562 186.984375 41.457031 188.707031 L 31.902344 190.808594 L 41.648438 189.917969 C 39.929688 192.273438 37.253906 193.867188 34.324219 194.183594 Z M 34.324219 194.183594 " fill-opacity="1" fill-rule="evenodd"/><path fill="#008c51" d="M 26.105469 206.351562 C 23.175781 206.671875 20.246094 205.777344 18.015625 203.867188 C 19.542969 201.382812 22.09375 199.597656 24.960938 199.027344 C 27.824219 198.453125 30.882812 199.089844 33.242188 200.875 L 23.683594 202.976562 L 33.429688 202.082031 C 31.710938 204.441406 29.035156 206.035156 26.105469 206.351562 Z M 26.105469 206.351562 " fill-opacity="1" fill-rule="evenodd"/><path fill="#008c51" d="M 19.035156 217.945312 C 16.359375 218.265625 13.621094 217.4375 11.582031 215.652344 C 12.984375 213.359375 15.339844 211.703125 18.015625 211.191406 C 20.691406 210.683594 23.429688 211.257812 25.660156 212.847656 L 16.867188 214.824219 L 25.851562 213.996094 C 24.257812 216.160156 21.773438 217.628906 19.097656 217.945312 Z M 19.035156 217.945312 " fill-opacity="1" fill-rule="evenodd"/><path fill="#008c51" d="M 12.917969 228.265625 C 10.242188 228.582031 7.503906 227.753906 5.464844 225.972656 C 6.867188 223.679688 9.226562 222.085938 11.898438 221.511719 C 14.574219 221.003906 17.316406 221.578125 19.542969 223.167969 L 10.753906 225.082031 L 19.734375 224.253906 C 18.144531 226.417969 15.660156 227.882812 12.984375 228.203125 Z M 12.917969 228.265625 " fill-opacity="1" fill-rule="evenodd"/><g clip-path="url(#68abefd54a)"><path fill="#008c51" d="M 11.070312 240.113281 C 8.652344 241.324219 5.785156 241.453125 3.300781 240.496094 C 3.875 237.820312 5.53125 235.527344 7.824219 234.191406 C 10.179688 232.789062 12.984375 232.46875 15.53125 233.234375 L 7.949219 238.011719 L 16.105469 234.253906 C 15.339844 236.863281 13.492188 239.03125 11.070312 240.242188 Z M 11.070312 240.113281 " fill-opacity="1" fill-rule="evenodd"/></g><path fill="#008c51" d="M 18.652344 245.785156 C 17.441406 248.203125 15.277344 250.050781 12.726562 250.816406 C 11.582031 248.394531 11.453125 245.527344 12.472656 243.042969 C 13.492188 240.496094 15.46875 238.523438 18.015625 237.566406 L 14.894531 245.976562 L 19.035156 238.011719 C 19.992188 240.558594 19.863281 243.363281 18.714844 245.785156 Z M 18.652344 245.785156 " fill-opacity="1" fill-rule="evenodd"/><path fill="#008c51" d="M 28.972656 235.273438 C 29.417969 237.949219 28.71875 240.6875 27.0625 242.851562 C 24.703125 241.515625 22.984375 239.285156 22.347656 236.675781 C 21.710938 234.0625 22.15625 231.257812 23.683594 228.964844 L 26.042969 237.628906 L 24.769531 228.710938 C 27.0625 230.238281 28.589844 232.597656 29.035156 235.273438 Z M 28.972656 235.273438 " fill-opacity="1" fill-rule="evenodd"/><path fill="#008c51" d="M 35.914062 227.375 C 36.363281 230.050781 35.660156 232.789062 34.003906 234.953125 C 31.648438 233.617188 29.929688 231.386719 29.289062 228.773438 C 28.652344 226.164062 29.101562 223.359375 30.628906 221.066406 L 32.984375 229.730469 L 31.710938 220.8125 C 34.003906 222.277344 35.535156 224.699219 35.914062 227.375 Z M 35.914062 227.375 " fill-opacity="1" fill-rule="evenodd"/><path fill="#008c51" d="M 44.007812 218.582031 C 44.453125 221.257812 43.75 223.996094 42.09375 226.164062 C 39.738281 224.824219 38.019531 222.597656 37.382812 219.984375 C 36.742188 217.371094 37.191406 214.570312 38.71875 212.277344 L 41.074219 220.941406 L 39.800781 212.019531 C 42.03125 213.488281 43.625 215.90625 44.070312 218.582031 Z M 44.007812 218.582031 " fill-opacity="1" fill-rule="evenodd"/><path fill="#008c51" d="M 53.433594 211.320312 C 53.878906 213.996094 53.179688 216.734375 51.523438 218.902344 C 49.167969 217.5625 47.445312 215.332031 46.808594 212.722656 C 46.171875 210.109375 46.617188 207.308594 48.148438 205.015625 L 50.503906 213.675781 L 49.230469 204.757812 C 51.460938 206.289062 53.050781 208.644531 53.433594 211.320312 Z M 53.433594 211.320312 " fill-opacity="1" fill-rule="evenodd"/><path fill="#008c51" d="M 63.246094 214.632812 C 62.289062 217.179688 60.3125 219.21875 57.828125 220.238281 C 56.429688 217.945312 56.046875 215.144531 56.808594 212.53125 C 57.574219 209.917969 59.359375 207.753906 61.777344 206.480469 L 59.550781 215.207031 L 62.863281 206.863281 C 64.074219 209.28125 64.261719 212.085938 63.308594 214.632812 Z M 63.246094 214.632812 " fill-opacity="1" fill-rule="evenodd"/><path fill="#008c51" d="M 73.882812 206.796875 C 72.925781 209.347656 70.953125 211.382812 68.46875 212.402344 C 67.066406 210.109375 66.683594 207.308594 67.386719 204.695312 C 68.148438 202.082031 69.933594 199.917969 72.355469 198.644531 L 70.125 207.371094 L 73.4375 199.027344 C 74.648438 201.445312 74.839844 204.25 73.882812 206.796875 Z M 73.882812 206.796875 " fill-opacity="1" fill-rule="evenodd"/><path fill="#008c51" d="M 85.15625 202.210938 C 83.308594 204.1875 80.761719 205.394531 78.023438 205.394531 C 77.578125 202.722656 78.277344 199.980469 79.933594 197.816406 C 81.589844 195.648438 84.074219 194.3125 86.75 194.058594 L 81.398438 201.320312 L 87.578125 194.820312 C 87.832031 197.496094 86.941406 200.238281 85.09375 202.210938 Z M 85.15625 202.210938 " fill-opacity="1" fill-rule="evenodd"/><path fill="#008c51" d="M 97.453125 201.320312 C 95.605469 203.292969 93.058594 204.503906 90.316406 204.503906 C 89.871094 201.828125 90.574219 199.089844 92.230469 196.925781 C 93.886719 194.757812 96.371094 193.421875 99.046875 193.164062 L 93.695312 200.425781 L 99.875 193.929688 C 100.128906 196.605469 99.171875 199.28125 97.390625 201.320312 Z M 97.453125 201.320312 " fill-opacity="1" fill-rule="evenodd"/><path fill="#008c51" d="M 78.214844 218.835938 C 75.730469 219.855469 72.863281 219.855469 70.441406 218.710938 C 71.144531 216.097656 72.925781 213.867188 75.347656 212.660156 C 77.769531 211.382812 80.570312 211.257812 83.121094 212.148438 L 75.21875 216.480469 L 83.566406 213.167969 C 82.671875 215.714844 80.699219 217.753906 78.214844 218.835938 Z M 78.214844 218.835938 " fill-opacity="1" fill-rule="evenodd"/><path fill="#008c51" d="M 72.800781 229.667969 C 70.316406 230.6875 67.449219 230.6875 65.027344 229.539062 C 65.730469 226.925781 67.511719 224.699219 69.933594 223.488281 C 72.355469 222.214844 75.15625 222.023438 77.703125 222.976562 L 69.804688 227.308594 L 78.152344 223.996094 C 77.257812 226.546875 75.285156 228.582031 72.800781 229.667969 Z M 72.800781 229.667969 " fill-opacity="1" fill-rule="evenodd"/><path fill="#008c51" d="M 67.320312 242.214844 C 64.835938 243.300781 61.96875 243.234375 59.550781 242.089844 C 60.25 239.476562 62.035156 237.3125 64.453125 236.035156 C 66.875 234.761719 69.679688 234.636719 72.226562 235.527344 L 64.328125 239.859375 L 72.671875 236.546875 C 71.714844 239.09375 69.804688 241.132812 67.320312 242.214844 Z M 67.320312 242.214844 " fill-opacity="1" fill-rule="evenodd"/><path fill="#008c51" d="M 65.539062 254.191406 C 63.054688 255.273438 60.1875 255.210938 57.765625 254.066406 C 58.464844 251.453125 60.25 249.289062 62.671875 248.011719 C 65.089844 246.738281 67.894531 246.613281 70.441406 247.503906 L 62.542969 251.835938 L 70.886719 248.523438 C 69.933594 251.070312 68.023438 253.109375 65.539062 254.191406 Z M 65.539062 254.191406 " fill-opacity="1" fill-rule="evenodd"/><path fill="#008c51" d="M 68.277344 267.441406 C 66.9375 269.800781 64.710938 271.519531 62.097656 272.15625 C 61.078125 269.671875 61.078125 266.804688 62.226562 264.382812 C 63.371094 261.898438 65.472656 259.988281 68.023438 259.160156 L 64.519531 267.441406 L 69.042969 259.671875 C 69.871094 262.21875 69.613281 265.085938 68.339844 267.441406 Z M 68.277344 267.441406 " fill-opacity="1" fill-rule="evenodd"/><path fill="#a5d6c1" d="M 80.378906 265.402344 C 80.636719 268.078125 79.808594 270.820312 78.023438 272.855469 C 75.730469 271.390625 74.136719 269.035156 73.628906 266.421875 C 73.117188 263.746094 73.753906 261.007812 75.410156 258.84375 L 77.257812 267.632812 L 76.558594 258.652344 C 78.722656 260.308594 80.125 262.726562 80.378906 265.46875 Z M 219.1875 258.777344 C 221.800781 262.984375 226.003906 265.914062 230.84375 266.804688 C 232.5 262.15625 232.183594 257.058594 229.953125 252.664062 C 227.722656 248.269531 223.710938 245.019531 218.996094 243.679688 L 226.132812 258.398438 L 217.210938 244.699219 C 215.875 249.476562 216.640625 254.511719 219.25 258.714844 Z M 229.378906 244.828125 C 231.992188 249.03125 236.195312 251.960938 241.039062 252.917969 C 242.757812 248.269531 242.4375 243.171875 240.144531 238.777344 C 237.917969 234.378906 233.902344 231.132812 229.1875 229.792969 L 236.324219 244.507812 L 227.40625 230.8125 C 226.066406 235.589844 226.832031 240.625 229.378906 244.828125 Z M 240.402344 233.425781 C 241.292969 237.3125 243.714844 240.6875 247.152344 242.726562 C 249.699219 239.605469 250.785156 235.589844 250.273438 231.640625 C 249.699219 227.691406 247.535156 224.125 244.222656 221.832031 L 245.75 235.019531 L 242.566406 222.148438 C 240.273438 225.460938 239.507812 229.539062 240.335938 233.425781 Z M 252.25 230.304688 C 253.140625 234.191406 255.5625 237.566406 259 239.605469 C 261.550781 236.484375 262.632812 232.46875 262.121094 228.519531 C 261.550781 224.570312 259.382812 221.003906 256.070312 218.710938 L 257.601562 231.894531 L 254.414062 219.027344 C 252.121094 222.339844 251.355469 226.417969 252.183594 230.304688 Z M 264.796875 230.6875 C 265.625 234.253906 267.855469 237.375 271.042969 239.222656 C 273.398438 236.355469 274.417969 232.660156 273.90625 229.03125 C 273.398438 225.398438 271.359375 222.148438 268.367188 220.046875 L 269.765625 232.152344 L 266.835938 220.300781 C 264.734375 223.296875 264.035156 227.117188 264.796875 230.6875 Z M 278.496094 236.035156 C 278.304688 238.710938 279.257812 241.386719 281.105469 243.363281 C 283.335938 241.835938 284.863281 239.476562 285.3125 236.800781 C 285.691406 234.125 284.992188 231.386719 283.335938 229.285156 L 281.742188 238.140625 L 282.1875 229.15625 C 280.085938 230.8125 278.75 233.363281 278.558594 236.035156 Z M 286.457031 242.917969 C 285.183594 245.335938 284.992188 248.140625 285.882812 250.6875 C 288.558594 250.179688 290.917969 248.585938 292.316406 246.292969 C 293.78125 244 294.164062 241.195312 293.527344 238.585938 L 288.558594 246.101562 L 292.574219 238.074219 C 289.960938 238.777344 287.730469 240.558594 286.457031 242.917969 Z M 289.769531 252.726562 C 288.496094 255.148438 288.304688 257.949219 289.195312 260.5 C 291.871094 259.988281 294.230469 258.398438 295.628906 256.101562 C 297.09375 253.808594 297.476562 251.007812 296.777344 248.394531 L 291.808594 255.847656 L 295.820312 247.820312 C 293.210938 248.523438 290.980469 250.304688 289.707031 252.726562 Z M 294.484375 265.339844 C 294.230469 268.015625 295.058594 270.753906 296.839844 272.792969 C 299.132812 271.328125 300.726562 268.972656 301.234375 266.359375 C 301.746094 263.683594 301.109375 260.945312 299.453125 258.777344 L 297.605469 267.570312 L 298.304688 258.585938 C 296.140625 260.242188 294.738281 262.664062 294.484375 265.402344 Z M 155.675781 258.714844 C 153.066406 262.917969 148.859375 265.851562 144.019531 266.742188 C 142.300781 262.089844 142.679688 256.996094 144.910156 252.601562 C 147.140625 248.203125 151.152344 244.957031 155.867188 243.617188 L 148.734375 258.332031 L 157.652344 244.636719 C 158.988281 249.414062 158.222656 254.445312 155.613281 258.652344 Z M 145.484375 244.765625 C 142.871094 248.96875 138.667969 251.898438 133.828125 252.855469 C 132.105469 248.203125 132.488281 243.109375 134.71875 238.710938 C 136.949219 234.316406 140.960938 231.066406 145.675781 229.730469 L 138.539062 244.445312 L 147.457031 230.75 C 148.796875 235.527344 148.03125 240.558594 145.421875 244.765625 Z M 134.464844 233.363281 C 133.570312 237.246094 131.152344 240.625 127.648438 242.664062 C 125.097656 239.539062 124.015625 235.527344 124.527344 231.578125 C 125.097656 227.628906 127.265625 224.0625 130.578125 221.769531 L 129.046875 234.953125 L 132.234375 222.085938 C 134.527344 225.398438 135.292969 229.476562 134.464844 233.363281 Z M 122.613281 230.238281 C 121.722656 234.125 119.300781 237.503906 115.796875 239.539062 C 113.25 236.417969 112.167969 232.40625 112.675781 228.457031 C 113.25 224.507812 115.417969 220.941406 118.730469 218.644531 L 117.199219 231.832031 L 120.386719 218.964844 C 122.679688 222.277344 123.441406 226.355469 122.613281 230.238281 Z M 110.066406 230.621094 C 109.238281 234.191406 107.007812 237.3125 103.824219 239.160156 C 101.53125 236.292969 100.445312 232.597656 101.019531 228.964844 C 101.53125 225.335938 103.503906 222.085938 106.5625 219.984375 L 105.160156 232.085938 L 108.089844 220.238281 C 110.191406 223.234375 110.894531 227.054688 110.128906 230.621094 Z M 96.371094 235.972656 C 96.5625 238.648438 95.605469 241.324219 93.820312 243.300781 C 91.59375 241.769531 90.0625 239.414062 89.617188 236.738281 C 89.171875 234.0625 89.9375 231.324219 91.59375 229.222656 L 93.183594 238.074219 L 92.738281 229.09375 C 94.839844 230.75 96.179688 233.296875 96.371094 235.972656 Z M 88.40625 242.851562 C 89.679688 245.273438 89.871094 248.078125 88.980469 250.625 C 86.304688 250.117188 83.949219 248.523438 82.546875 246.230469 C 81.082031 243.9375 80.636719 241.132812 81.335938 238.523438 L 86.304688 246.039062 L 82.292969 238.011719 C 84.902344 238.710938 87.132812 240.496094 88.40625 242.851562 Z M 85.09375 252.664062 C 86.367188 255.085938 86.558594 257.886719 85.667969 260.433594 C 82.992188 259.925781 80.636719 258.332031 79.234375 256.039062 C 77.769531 253.746094 77.324219 250.945312 78.023438 248.332031 L 82.992188 255.785156 L 78.980469 247.757812 C 81.589844 248.460938 83.820312 250.242188 85.09375 252.664062 Z M 85.09375 252.664062 " fill-opacity="1" fill-rule="evenodd"/><path fill="#008c51" d="M 68.402344 148.0625 C 65.089844 144.179688 63.5625 139.082031 64.199219 133.984375 C 69.296875 133.792969 74.265625 135.769531 77.894531 139.402344 C 81.527344 143.03125 83.4375 148 83.246094 153.097656 L 71.015625 141.375 L 81.71875 154.5625 C 76.621094 154.308594 71.78125 152.015625 68.46875 148.0625 Z M 68.402344 148.0625 " fill-opacity="1" fill-rule="evenodd"/><path fill="#008c51" d="M 52.925781 145.769531 C 51.585938 142.585938 51.652344 139.019531 53.050781 135.898438 C 56.363281 136.789062 59.167969 139.082031 60.695312 142.140625 C 62.289062 145.199219 62.542969 148.765625 61.332031 152.015625 L 55.855469 142.011719 L 59.996094 152.585938 C 56.746094 151.441406 54.199219 148.957031 52.859375 145.769531 Z M 52.925781 145.769531 " fill-opacity="1" fill-rule="evenodd"/><path fill="#008c51" d="M 37.445312 135.003906 C 36.105469 131.820312 36.171875 128.253906 37.570312 125.132812 C 40.882812 126.023438 43.6875 128.316406 45.214844 131.375 C 46.808594 134.433594 47 138 45.855469 141.246094 L 40.375 131.246094 L 44.515625 141.820312 C 41.265625 140.675781 38.71875 138.191406 37.382812 135.003906 Z M 37.445312 135.003906 " fill-opacity="1" fill-rule="evenodd"/><path fill="#008c51" d="M 23.429688 124.367188 C 23.238281 120.925781 24.449219 117.550781 26.804688 115.066406 C 29.609375 117.042969 31.519531 120.035156 32.03125 123.476562 C 32.539062 126.851562 31.585938 130.355469 29.417969 133.03125 L 27.507812 121.820312 L 27.953125 133.222656 C 25.277344 131.054688 23.621094 127.871094 23.429688 124.429688 Z M 23.429688 124.367188 " fill-opacity="1" fill-rule="evenodd"/><path fill="#008c51" d="M 55.792969 111.433594 C 52.734375 112.964844 50.375 115.703125 49.421875 119.015625 C 52.542969 120.480469 56.109375 120.609375 59.292969 119.335938 C 62.480469 118.058594 65.027344 115.511719 66.238281 112.328125 L 55.535156 116.277344 L 65.664062 110.988281 C 62.480469 109.777344 58.847656 109.90625 55.792969 111.433594 Z M 55.792969 111.433594 " fill-opacity="1" fill-rule="evenodd"/><path fill="#008c51" d="M 45.28125 106.339844 C 43.113281 107.421875 41.523438 109.332031 40.820312 111.5625 C 42.988281 112.582031 45.472656 112.644531 47.699219 111.816406 C 49.929688 110.925781 51.652344 109.140625 52.542969 106.914062 L 45.089844 109.652344 L 52.097656 105.957031 C 49.867188 105.128906 47.382812 105.191406 45.214844 106.277344 Z M 45.28125 106.339844 " fill-opacity="1" fill-rule="evenodd"/><path fill="#008c51" d="M 65.089844 120.226562 C 62.925781 121.308594 61.332031 123.21875 60.632812 125.511719 C 62.796875 126.53125 65.28125 126.597656 67.511719 125.769531 C 69.742188 124.875 71.460938 123.09375 72.355469 120.863281 L 64.902344 123.601562 L 71.90625 119.90625 C 69.679688 119.078125 67.195312 119.144531 65.027344 120.226562 Z M 65.089844 120.226562 " fill-opacity="1" fill-rule="evenodd"/><path fill="#008c51" d="M 74.902344 125.324219 C 72.734375 126.40625 71.144531 128.253906 70.441406 130.546875 C 72.609375 131.566406 75.09375 131.628906 77.324219 130.800781 C 79.550781 129.910156 81.273438 128.125 82.164062 125.894531 L 74.710938 128.636719 L 81.71875 124.941406 C 79.488281 124.113281 77.003906 124.175781 74.839844 125.257812 Z M 74.902344 125.324219 " fill-opacity="1" fill-rule="evenodd"/><path fill="#008c51" d="M 83.308594 131.4375 C 80.890625 131.566406 78.660156 132.648438 77.132812 134.496094 C 78.722656 136.277344 80.953125 137.363281 83.308594 137.488281 C 85.667969 137.554688 88.023438 136.660156 89.679688 134.941406 L 81.78125 134.496094 L 89.679688 133.921875 C 87.960938 132.265625 85.667969 131.375 83.246094 131.4375 Z M 83.308594 131.4375 " fill-opacity="1" fill-rule="evenodd"/><path fill="#008c51" d="M 95.476562 141.183594 C 93.25 140.292969 90.765625 140.417969 88.597656 141.4375 C 89.296875 143.730469 90.890625 145.644531 93.058594 146.664062 C 95.222656 147.683594 97.707031 147.808594 99.9375 146.917969 L 92.867188 143.285156 L 100.320312 146.027344 C 99.425781 143.796875 97.707031 142.011719 95.476562 141.183594 Z M 95.476562 141.183594 " fill-opacity="1" fill-rule="evenodd"/><path fill="#008c51" d="M 52.605469 230.429688 C 52.605469 233.171875 51.523438 235.71875 49.546875 237.566406 C 47.382812 235.910156 46.042969 233.425781 45.855469 230.6875 C 45.597656 227.945312 46.554688 225.269531 48.339844 223.296875 L 49.292969 232.214844 L 49.484375 223.234375 C 51.460938 225.082031 52.605469 227.628906 52.667969 230.367188 Z M 52.605469 230.429688 " fill-opacity="1" fill-rule="evenodd"/><path fill="#008c51" d="M 43.558594 237.691406 C 43.558594 240.433594 42.476562 242.980469 40.503906 244.828125 C 38.335938 243.171875 37 240.6875 36.808594 237.949219 C 36.554688 235.207031 37.507812 232.535156 39.292969 230.558594 L 40.246094 239.476562 L 40.375 230.496094 C 42.351562 232.34375 43.496094 234.890625 43.558594 237.628906 Z M 43.558594 237.691406 " fill-opacity="1" fill-rule="evenodd"/><path fill="#008c51" d="M 53.179688 249.988281 C 50.886719 251.453125 48.148438 251.960938 45.472656 251.324219 C 45.726562 248.648438 47.0625 246.164062 49.230469 244.445312 C 51.394531 242.789062 54.136719 242.089844 56.808594 242.535156 L 49.867188 248.203125 L 57.511719 243.425781 C 57.066406 246.101562 55.535156 248.460938 53.242188 249.988281 Z M 53.179688 249.988281 " fill-opacity="1" fill-rule="evenodd"/><path fill="#008c51" d="M 62.226562 229.15625 C 61.269531 231.707031 59.292969 233.742188 56.808594 234.761719 C 55.410156 232.46875 55.027344 229.667969 55.726562 227.054688 C 56.492188 224.441406 58.277344 222.277344 60.695312 221.003906 L 58.464844 229.730469 L 61.777344 221.386719 C 62.988281 223.804688 63.179688 226.609375 62.226562 229.15625 Z M 62.226562 229.15625 " fill-opacity="1" fill-rule="evenodd"/><path fill="#008c51" d="M 118.539062 69.457031 C 118.601562 66.207031 117.265625 63.085938 114.90625 60.855469 C 112.359375 62.832031 110.703125 65.824219 110.382812 69.074219 C 110.066406 72.320312 111.148438 75.507812 113.3125 77.929688 L 114.523438 67.226562 L 114.652344 77.992188 C 117.074219 75.824219 118.472656 72.703125 118.472656 69.457031 Z M 118.539062 69.457031 " fill-opacity="1" fill-rule="evenodd"/><path fill="#008c51" d="M 115.671875 51.425781 C 116.882812 47.667969 116.4375 43.527344 114.460938 40.089844 C 110.765625 41.488281 107.773438 44.355469 106.308594 48.050781 C 104.84375 51.746094 104.90625 55.886719 106.625 59.453125 L 111.847656 47.351562 L 108.15625 59.964844 C 111.722656 58.242188 114.460938 55.1875 115.671875 51.363281 Z M 115.671875 51.425781 " fill-opacity="1" fill-rule="evenodd"/><path fill="#008c51" d="M 137.519531 42.507812 C 136.121094 39.960938 133.636719 38.113281 130.832031 37.414062 C 129.6875 40.089844 129.75 43.144531 130.960938 45.820312 C 132.171875 48.496094 134.464844 50.535156 137.203125 51.425781 L 133.378906 42.507812 L 138.285156 50.917969 C 139.175781 48.113281 138.921875 45.058594 137.457031 42.507812 Z M 137.519531 42.507812 " fill-opacity="1" fill-rule="evenodd"/><path fill="#008c51" d="M 125.671875 52.636719 C 125.671875 49.390625 124.398438 46.269531 122.042969 44.039062 C 119.492188 46.011719 117.835938 49.007812 117.519531 52.253906 C 117.199219 55.503906 118.28125 58.691406 120.449219 61.109375 L 121.660156 50.410156 L 121.785156 61.175781 C 124.207031 59.007812 125.609375 55.886719 125.609375 52.636719 Z M 125.671875 52.636719 " fill-opacity="1" fill-rule="evenodd"/><path fill="#008c51" d="M 129.367188 33.78125 C 129.429688 30.535156 128.09375 27.410156 125.734375 25.183594 C 123.1875 27.15625 121.53125 30.152344 121.214844 33.398438 C 120.894531 36.648438 121.976562 39.832031 124.207031 42.253906 L 125.417969 31.550781 L 125.546875 42.316406 C 127.964844 40.152344 129.367188 37.03125 129.367188 33.78125 Z M 129.367188 33.78125 " fill-opacity="1" fill-rule="evenodd"/><path fill="#008c51" d="M 143.128906 30.277344 C 143.128906 27.03125 141.851562 23.910156 139.433594 21.679688 C 136.882812 23.652344 135.226562 26.648438 134.910156 29.894531 C 134.589844 33.144531 135.675781 36.332031 137.902344 38.75 L 139.113281 28.050781 L 139.242188 38.816406 C 141.660156 36.648438 143.0625 33.527344 143.0625 30.277344 Z M 143.128906 30.277344 " fill-opacity="1" fill-rule="evenodd"/><path fill="#008c51" d="M 154.53125 21.613281 C 154.53125 18.367188 153.253906 15.246094 150.835938 13.015625 C 148.285156 14.988281 146.628906 17.984375 146.3125 21.234375 C 145.992188 24.480469 147.078125 27.667969 149.242188 30.085938 L 150.453125 19.386719 L 150.582031 30.152344 C 153 27.984375 154.402344 24.863281 154.402344 21.613281 Z M 154.53125 21.613281 " fill-opacity="1" fill-rule="evenodd"/><path fill="#a5d6c1" d="M 195.746094 167.109375 C 192.433594 160.804688 191.921875 153.414062 194.28125 146.726562 C 201.289062 148 207.402344 152.203125 211.160156 158.191406 C 214.984375 164.179688 216.066406 171.507812 214.21875 178.386719 L 201.160156 158.765625 L 211.605469 179.851562 C 204.726562 178.003906 198.992188 173.355469 195.679688 167.109375 Z M 195.746094 167.109375 " fill-opacity="1" fill-rule="evenodd"/><path fill="#a5d6c1" d="M 205.363281 140.484375 C 203.324219 136.535156 203.007812 131.949219 204.472656 127.808594 C 208.804688 128.636719 212.625 131.183594 214.984375 134.941406 C 217.339844 138.699219 218.039062 143.222656 216.894531 147.492188 L 208.804688 135.261719 L 215.300781 148.382812 C 211.035156 147.234375 207.464844 144.371094 205.363281 140.417969 Z M 205.363281 140.484375 " fill-opacity="1" fill-rule="evenodd"/><path fill="#a5d6c1" d="M 209.25 121.183594 C 207.210938 117.296875 206.894531 112.644531 208.359375 108.503906 C 212.691406 109.332031 216.511719 111.882812 218.867188 115.640625 C 221.226562 119.398438 221.925781 123.921875 220.78125 128.1875 L 212.691406 115.957031 L 219.1875 129.082031 C 214.917969 127.933594 211.289062 125.066406 209.25 121.117188 Z M 209.25 121.183594 " fill-opacity="1" fill-rule="evenodd"/><path fill="#a5d6c1" d="M 207.085938 98.820312 C 202.945312 95.128906 200.523438 89.839844 200.460938 84.296875 C 205.9375 83.34375 211.542969 84.742188 216.003906 88.121094 C 220.398438 91.496094 223.199219 96.59375 223.773438 102.070312 L 208.867188 91.242188 L 222.308594 103.855469 C 216.765625 104.363281 211.289062 102.515625 207.148438 98.824219 Z M 207.085938 98.820312 " fill-opacity="1" fill-rule="evenodd"/><path fill="#a5d6c1" d="M 204.726562 77.800781 C 201.289062 76.589844 198.484375 74.042969 197.019531 70.730469 C 200.078125 68.753906 203.835938 68.117188 207.402344 69.007812 C 210.90625 69.902344 213.898438 72.257812 215.683594 75.445312 L 203.898438 72.703125 L 215.238281 76.84375 C 212.054688 78.566406 208.230469 78.882812 204.789062 77.738281 Z M 204.726562 77.800781 " fill-opacity="1" fill-rule="evenodd"/><path fill="#008c51" d="M 197.910156 25.4375 C 197.019531 21.933594 197.59375 18.175781 199.566406 15.054688 C 202.878906 16.519531 205.492188 19.320312 206.703125 22.761719 C 207.914062 26.203125 207.59375 29.960938 205.875 33.207031 L 201.667969 21.871094 L 204.410156 33.65625 C 201.222656 31.933594 198.867188 28.941406 197.910156 25.375 Z M 197.910156 25.4375 " fill-opacity="1" fill-rule="evenodd"/><path fill="#008c51" d="M 213.519531 36.457031 C 213.453125 32.445312 215.046875 28.558594 217.914062 25.753906 C 221.097656 28.175781 223.199219 31.871094 223.582031 35.820312 C 223.964844 39.832031 222.691406 43.785156 220.015625 46.839844 L 218.359375 33.589844 L 218.296875 46.90625 C 215.300781 44.230469 213.519531 40.40625 213.453125 36.394531 Z M 213.519531 36.457031 " fill-opacity="1" fill-rule="evenodd"/><path fill="#008c51" d="M 224.15625 49.007812 C 225.367188 45.183594 228.042969 42 231.671875 40.214844 C 233.964844 43.527344 234.730469 47.667969 233.902344 51.554688 C 233.011719 55.503906 230.527344 58.882812 227.085938 60.855469 L 229.699219 47.796875 L 225.492188 60.410156 C 223.457031 56.90625 223.007812 52.765625 224.15625 48.941406 Z M 224.15625 49.007812 " fill-opacity="1" fill-rule="evenodd"/><path fill="#008c51" d="M 234.15625 59.710938 C 236.449219 55.570312 240.402344 52.511719 245.050781 51.363281 C 246.898438 55.757812 246.835938 60.726562 244.859375 65.058594 C 242.886719 69.390625 239.191406 72.703125 234.667969 74.234375 L 240.847656 59.710938 L 232.882812 73.339844 C 231.417969 68.820312 231.863281 63.851562 234.15625 59.710938 Z M 234.15625 59.710938 " fill-opacity="1" fill-rule="evenodd"/><path fill="#008c51" d="M 241.417969 77.546875 C 243.714844 73.40625 247.664062 70.347656 252.3125 69.199219 C 254.160156 73.597656 254.097656 78.566406 252.121094 82.898438 C 250.148438 87.226562 246.453125 90.539062 241.929688 92.070312 L 248.109375 77.546875 L 240.144531 91.179688 C 238.679688 86.65625 239.125 81.6875 241.417969 77.546875 Z M 241.417969 77.546875 " fill-opacity="1" fill-rule="evenodd"/><path fill="#008c51" d="M 245.558594 97.164062 C 247.855469 93.023438 251.804688 89.96875 256.453125 88.820312 C 258.300781 93.214844 258.238281 98.183594 256.261719 102.515625 C 254.289062 106.847656 250.59375 110.160156 246.070312 111.691406 L 252.25 97.164062 L 244.285156 110.796875 C 242.820312 106.277344 243.265625 101.308594 245.558594 97.164062 Z M 245.558594 97.164062 " fill-opacity="1" fill-rule="evenodd"/><path fill="#008c51" d="M 260.59375 88.949219 C 260.59375 85.953125 261.804688 83.085938 263.96875 81.050781 C 266.328125 82.898438 267.855469 85.636719 268.109375 88.628906 C 268.367188 91.625 267.410156 94.554688 265.371094 96.785156 L 264.226562 86.910156 L 264.097656 96.847656 C 261.867188 94.808594 260.59375 92.007812 260.59375 89.011719 Z M 260.59375 88.949219 " fill-opacity="1" fill-rule="evenodd"/><path fill="#008c51" d="M 268.175781 78.375 C 267.472656 75.445312 268.046875 72.386719 269.703125 69.902344 C 272.441406 71.175781 274.480469 73.46875 275.4375 76.335938 C 276.390625 79.203125 276.074219 82.324219 274.609375 84.933594 L 271.296875 75.570312 L 273.398438 85.253906 C 270.785156 83.789062 268.875 81.304688 268.175781 78.375 Z M 268.175781 78.375 " fill-opacity="1" fill-rule="evenodd"/><path fill="#008c51" d="M 272.125 66.523438 C 270.53125 63.976562 270.023438 60.917969 270.785156 57.988281 C 273.78125 58.308594 276.457031 59.835938 278.304688 62.257812 C 280.085938 64.679688 280.789062 67.671875 280.277344 70.664062 L 274.097656 62.894531 L 279.195312 71.429688 C 276.265625 70.855469 273.652344 69.136719 272.058594 66.589844 Z M 272.125 66.523438 " fill-opacity="1" fill-rule="evenodd"/><path fill="#008c51" d="M 274.800781 54.421875 C 273.335938 53.148438 272.441406 51.300781 272.378906 49.324219 C 274.289062 48.941406 276.328125 49.390625 277.859375 50.597656 C 279.449219 51.746094 280.46875 53.53125 280.660156 55.503906 L 275.371094 51.746094 L 280.152344 56.140625 C 278.175781 56.332031 276.265625 55.757812 274.800781 54.421875 Z M 274.800781 54.421875 " fill-opacity="1" fill-rule="evenodd"/><path fill="#008c51" d="M 272.25 43.785156 C 270.785156 42.507812 269.894531 40.660156 269.832031 38.6875 C 271.742188 38.304688 273.714844 38.816406 275.308594 39.960938 C 276.902344 41.109375 277.921875 42.890625 278.113281 44.867188 L 272.824219 41.109375 L 277.601562 45.503906 C 275.628906 45.695312 273.714844 45.121094 272.25 43.785156 Z M 272.25 43.785156 " fill-opacity="1" fill-rule="evenodd"/><path fill="#008c51" d="M 274.035156 35.4375 C 272.886719 33.847656 272.507812 31.871094 272.886719 29.894531 C 274.863281 30.023438 276.648438 30.914062 277.921875 32.378906 C 279.195312 33.910156 279.769531 35.820312 279.515625 37.796875 L 275.246094 32.890625 L 278.875 38.242188 C 276.902344 37.988281 275.183594 36.902344 274.035156 35.3125 Z M 274.035156 35.4375 " fill-opacity="1" fill-rule="evenodd"/><path fill="#008c51" d="M 288.433594 40.28125 C 289.195312 38.496094 289.132812 36.457031 288.304688 34.675781 C 286.394531 35.183594 284.863281 36.519531 283.972656 38.242188 C 283.082031 39.960938 282.953125 42 283.65625 43.847656 L 286.710938 38.113281 L 284.417969 44.164062 C 286.265625 43.464844 287.730469 42.0625 288.433594 40.214844 Z M 288.433594 40.28125 " fill-opacity="1" fill-rule="evenodd"/><path fill="#008c51" d="M 293.527344 48.050781 C 294.292969 46.269531 294.230469 44.230469 293.402344 42.445312 C 291.488281 42.957031 289.960938 44.292969 289.070312 46.011719 C 288.175781 47.796875 288.050781 49.835938 288.75 51.617188 L 291.808594 45.886719 L 289.515625 51.9375 C 291.363281 51.238281 292.828125 49.835938 293.527344 47.988281 Z M 293.527344 48.050781 " fill-opacity="1" fill-rule="evenodd"/><path fill="#008c51" d="M 297.285156 57.605469 C 298.179688 55.378906 298.113281 52.828125 297.09375 50.664062 C 294.800781 51.300781 292.828125 52.957031 291.746094 55.121094 C 290.660156 57.289062 290.535156 59.835938 291.363281 62.066406 L 295.121094 54.996094 L 292.253906 62.511719 C 294.546875 61.683594 296.332031 59.898438 297.222656 57.671875 Z M 297.285156 57.605469 " fill-opacity="1" fill-rule="evenodd"/><path fill="#008c51" d="M 298.242188 69.835938 C 299.898438 68.054688 300.726562 65.695312 300.535156 63.277344 C 298.113281 63.085938 295.757812 63.914062 293.972656 65.570312 C 292.191406 67.226562 291.171875 69.519531 291.171875 71.941406 L 297.160156 66.652344 L 291.871094 72.703125 C 294.292969 72.703125 296.585938 71.683594 298.242188 69.902344 Z M 298.242188 69.835938 " fill-opacity="1" fill-rule="evenodd"/><path fill="#008c51" d="M 298.941406 79.136719 C 300.597656 77.355469 301.425781 74.996094 301.234375 72.578125 C 298.816406 72.386719 296.457031 73.214844 294.675781 74.871094 C 292.890625 76.527344 291.871094 78.820312 291.871094 81.242188 L 297.859375 75.953125 L 292.574219 82.003906 C 294.992188 82.003906 297.285156 80.984375 298.941406 79.203125 Z M 298.941406 79.136719 " fill-opacity="1" fill-rule="evenodd"/><path fill="#008c51" d="M 301.9375 87.164062 C 303.59375 85.382812 304.421875 83.023438 304.167969 80.601562 C 301.746094 80.414062 299.390625 81.242188 297.605469 82.898438 C 295.820312 84.554688 294.800781 86.847656 294.800781 89.265625 L 300.789062 83.914062 L 295.503906 89.96875 C 297.921875 89.96875 300.21875 88.949219 301.875 87.164062 Z M 301.9375 87.164062 " fill-opacity="1" fill-rule="evenodd"/><path fill="#008c51" d="M 311.492188 87.800781 C 312.828125 85.761719 313.277344 83.277344 312.703125 80.921875 C 310.28125 81.113281 308.050781 82.324219 306.585938 84.234375 C 305.121094 86.144531 304.484375 88.566406 304.867188 90.988281 L 309.964844 84.808594 L 305.695312 91.625 C 308.050781 91.242188 310.21875 89.839844 311.554688 87.867188 Z M 311.492188 87.800781 " fill-opacity="1" fill-rule="evenodd"/><path fill="#008c51" d="M 319.328125 91.941406 C 321.046875 90.921875 322.320312 89.203125 322.769531 87.292969 C 320.921875 86.527344 318.816406 86.589844 316.96875 87.484375 C 315.125 88.375 313.785156 89.96875 313.210938 91.878906 L 319.328125 89.140625 L 313.65625 92.644531 C 315.570312 93.214844 317.671875 93.023438 319.390625 92.007812 Z M 319.328125 91.941406 " fill-opacity="1" fill-rule="evenodd"/><path fill="#008c51" d="M 327.164062 95.382812 C 328.882812 94.363281 330.15625 92.644531 330.601562 90.730469 C 328.691406 89.96875 326.652344 90.03125 324.804688 90.921875 C 322.957031 91.816406 321.621094 93.40625 321.046875 95.320312 L 327.164062 92.578125 L 321.492188 96.082031 C 323.40625 96.65625 325.507812 96.402344 327.226562 95.445312 Z M 327.164062 95.382812 " fill-opacity="1" fill-rule="evenodd"/><path fill="#a5d6c1" d="M 324.871094 102.707031 C 326.78125 103.410156 328.882812 103.28125 330.667969 102.390625 C 330.03125 100.476562 328.628906 98.886719 326.84375 98.058594 C 324.996094 97.230469 322.894531 97.164062 321.046875 97.929688 L 327.035156 100.859375 L 320.730469 98.695312 C 321.492188 100.542969 323.023438 102.007812 324.871094 102.707031 Z M 324.871094 102.707031 " fill-opacity="1" fill-rule="evenodd"/><path fill="#a5d6c1" d="M 316.140625 104.171875 C 318.054688 104.875 320.15625 104.746094 321.941406 103.855469 C 321.300781 101.945312 319.902344 100.351562 318.117188 99.523438 C 316.269531 98.695312 314.167969 98.632812 312.320312 99.394531 L 318.308594 102.324219 L 312 100.160156 C 312.765625 102.007812 314.296875 103.472656 316.140625 104.171875 Z M 316.140625 104.171875 " fill-opacity="1" fill-rule="evenodd"/><path fill="#a5d6c1" d="M 304.929688 106.148438 C 307.03125 106.914062 309.261719 106.785156 311.238281 105.765625 C 310.535156 103.664062 309.007812 101.945312 307.03125 100.988281 C 305.058594 100.03125 302.703125 100.03125 300.664062 100.859375 L 307.222656 104.109375 L 300.34375 101.753906 C 301.171875 103.792969 302.828125 105.382812 304.929688 106.148438 Z M 304.929688 106.148438 " fill-opacity="1" fill-rule="evenodd"/><path fill="#a5d6c1" d="M 295.949219 109.777344 C 298.433594 110.671875 301.109375 110.542969 303.464844 109.332031 C 302.636719 106.847656 300.855469 104.808594 298.496094 103.726562 C 296.140625 102.644531 293.402344 102.582031 290.980469 103.535156 L 298.75 107.359375 L 290.535156 104.554688 C 291.554688 106.976562 293.464844 108.886719 295.949219 109.777344 Z M 295.949219 109.777344 " fill-opacity="1" fill-rule="evenodd"/><path fill="#a5d6c1" d="M 287.667969 119.078125 C 291.234375 120.417969 295.25 120.164062 298.6875 118.441406 C 297.542969 114.8125 294.867188 111.816406 291.363281 110.160156 C 287.859375 108.570312 283.910156 108.441406 280.34375 109.90625 L 291.746094 115.511719 L 279.703125 111.371094 C 281.171875 114.9375 284.035156 117.679688 287.667969 119.015625 Z M 287.667969 119.078125 " fill-opacity="1" fill-rule="evenodd"/><path fill="#a5d6c1" d="M 278.6875 127.679688 C 282.316406 129.015625 286.265625 128.761719 289.707031 127.042969 C 288.496094 123.410156 285.882812 120.417969 282.378906 118.761719 C 278.875 117.167969 274.925781 117.042969 271.359375 118.507812 L 282.761719 124.113281 L 270.722656 119.972656 C 272.1875 123.539062 275.054688 126.277344 278.621094 127.617188 Z M 278.6875 127.679688 " fill-opacity="1" fill-rule="evenodd"/><path fill="#a5d6c1" d="M 272.632812 138.316406 C 276.457031 138.125 280.023438 136.34375 282.507812 133.414062 C 279.960938 130.546875 276.390625 128.824219 272.570312 128.699219 C 268.746094 128.570312 265.054688 130.035156 262.3125 132.777344 L 274.992188 133.476562 L 262.3125 134.367188 C 265.054688 137.042969 268.8125 138.445312 272.632812 138.253906 Z M 272.632812 138.316406 " fill-opacity="1" fill-rule="evenodd"/><path fill="#a5d6c1" d="M 261.484375 152.078125 C 265.308594 151.886719 268.875 150.101562 271.359375 147.171875 C 268.875 144.304688 265.246094 142.585938 261.421875 142.457031 C 257.601562 142.332031 253.90625 143.796875 251.167969 146.535156 L 263.84375 147.234375 L 251.167969 148.128906 C 253.90625 150.804688 257.601562 152.269531 261.484375 152.078125 Z M 261.484375 152.078125 " fill-opacity="1" fill-rule="evenodd"/><path fill="#a5d6c1" d="M 257.855469 167.046875 C 262.121094 165.964844 265.691406 163.097656 267.730469 159.210938 C 264.226562 156.535156 259.765625 155.515625 255.433594 156.28125 C 251.101562 157.046875 247.28125 159.59375 244.921875 163.289062 L 259.320312 161.058594 L 245.371094 165.074219 C 249.0625 167.429688 253.585938 168.128906 257.855469 167.046875 Z M 257.855469 167.046875 " fill-opacity="1" fill-rule="evenodd"/><path fill="#a5d6c1" d="M 284.292969 169.722656 C 288.304688 165.007812 290.152344 158.894531 289.386719 152.777344 C 283.207031 152.523438 277.21875 154.878906 272.886719 159.277344 C 268.558594 163.671875 266.199219 169.59375 266.453125 175.773438 L 281.234375 161.632812 L 268.367188 177.496094 C 274.546875 177.238281 280.277344 174.4375 284.292969 169.722656 Z M 284.292969 169.722656 " fill-opacity="1" fill-rule="evenodd"/><path fill="#a5d6c1" d="M 301.492188 172.84375 C 304.421875 169.339844 305.824219 164.816406 305.3125 160.230469 C 300.726562 160.039062 296.265625 161.824219 293.082031 165.074219 C 289.832031 168.320312 288.113281 172.78125 288.304688 177.367188 L 299.261719 166.855469 L 289.707031 178.640625 C 294.292969 178.449219 298.5625 176.347656 301.554688 172.84375 Z M 301.492188 172.84375 " fill-opacity="1" fill-rule="evenodd"/><path fill="#a5d6c1" d="M 321.558594 169.851562 C 323.53125 165.710938 323.785156 160.933594 322.128906 156.726562 C 317.671875 157.683594 313.785156 160.484375 311.429688 164.4375 C 309.136719 168.386719 308.5625 173.097656 309.835938 177.496094 L 317.863281 164.625 L 311.554688 178.449219 C 315.953125 177.113281 319.582031 174.054688 321.558594 169.914062 Z M 321.558594 169.851562 " fill-opacity="1" fill-rule="evenodd"/><path fill="#a5d6c1" d="M 338.183594 157.621094 C 338.375 153.03125 336.65625 148.574219 333.40625 145.386719 C 329.710938 148.0625 327.289062 152.203125 326.71875 156.726562 C 326.144531 161.25 327.546875 165.835938 330.539062 169.339844 L 332.707031 154.308594 L 332.449219 169.46875 C 335.953125 166.472656 337.992188 162.207031 338.183594 157.621094 Z M 338.183594 157.621094 " fill-opacity="1" fill-rule="evenodd"/><path fill="#a5d6c1" d="M 347.546875 149.210938 C 347.675781 146.535156 346.65625 143.921875 344.746094 142.011719 C 342.578125 143.605469 341.175781 146.027344 340.859375 148.636719 C 340.539062 151.3125 341.367188 153.988281 343.089844 156.027344 L 344.363281 147.234375 L 344.234375 156.15625 C 346.273438 154.433594 347.484375 151.886719 347.613281 149.210938 Z M 347.546875 149.210938 " fill-opacity="1" fill-rule="evenodd"/><path fill="#a5d6c1" d="M 356.976562 138 C 357.101562 135.324219 356.082031 132.710938 354.171875 130.800781 C 352.007812 132.394531 350.605469 134.8125 350.285156 137.488281 C 349.96875 140.164062 350.796875 142.839844 352.515625 144.878906 L 353.789062 136.089844 L 353.664062 145.007812 C 355.703125 143.285156 356.910156 140.738281 357.039062 138.0625 Z M 356.976562 138 " fill-opacity="1" fill-rule="evenodd"/><path fill="#a5d6c1" d="M 364.8125 129.207031 C 364.9375 126.53125 363.917969 123.921875 362.007812 122.011719 C 359.84375 123.601562 358.441406 126.023438 358.121094 128.699219 C 357.804688 131.375 358.632812 134.050781 360.351562 136.089844 L 361.625 127.296875 L 361.5 136.214844 C 363.535156 134.433594 364.746094 131.949219 364.875 129.273438 Z M 364.8125 129.207031 " fill-opacity="1" fill-rule="evenodd"/><g clip-path="url(#a99f7c97a2)"><path fill="#008c51" d="M 366.277344 145.578125 C 368.632812 144.304688 370.417969 142.140625 371.117188 139.527344 C 368.632812 138.445312 365.894531 138.445312 363.410156 139.464844 C 360.925781 140.546875 359.015625 142.585938 358.121094 145.070312 L 366.402344 141.757812 L 358.632812 146.089844 C 361.179688 146.980469 363.984375 146.789062 366.339844 145.515625 Z M 366.277344 145.578125 " fill-opacity="1" fill-rule="evenodd"/></g><path fill="#008c51" d="M 363.21875 156.726562 C 365.574219 155.453125 367.359375 153.289062 368.058594 150.675781 C 365.574219 149.59375 362.773438 149.59375 360.351562 150.613281 C 357.867188 151.695312 355.957031 153.734375 355.066406 156.21875 L 363.347656 152.90625 L 355.574219 157.238281 C 358.121094 158.128906 360.925781 157.9375 363.28125 156.664062 Z M 363.21875 156.726562 " fill-opacity="1" fill-rule="evenodd"/><path fill="#008c51" d="M 357.675781 167.046875 C 360.605469 166.539062 363.15625 164.816406 364.683594 162.332031 C 362.453125 160.359375 359.523438 159.46875 356.59375 159.722656 C 353.664062 160.039062 350.988281 161.503906 349.203125 163.863281 L 358.949219 163.097656 L 349.394531 165.074219 C 351.753906 166.855469 354.746094 167.558594 357.675781 167.046875 Z M 357.675781 167.046875 " fill-opacity="1" fill-rule="evenodd"/><path fill="#008c51" d="M 350.097656 176.984375 C 353.027344 177.304688 355.957031 176.410156 358.1875 174.5 C 356.65625 172.015625 354.109375 170.234375 351.242188 169.660156 C 348.3125 169.085938 345.316406 169.785156 342.960938 171.507812 L 352.515625 173.609375 L 342.769531 172.71875 C 344.488281 175.074219 347.164062 176.667969 350.097656 176.984375 Z M 350.097656 176.984375 " fill-opacity="1" fill-rule="evenodd"/><path fill="#008c51" d="M 344.554688 185.777344 C 347.484375 186.09375 350.414062 185.203125 352.644531 183.292969 C 351.113281 180.808594 348.566406 179.023438 345.699219 178.449219 C 342.832031 177.875 339.777344 178.578125 337.417969 180.296875 L 346.972656 182.398438 L 337.226562 181.507812 C 338.949219 183.863281 341.625 185.457031 344.554688 185.777344 Z M 344.554688 185.777344 " fill-opacity="1" fill-rule="evenodd"/><path fill="#008c51" d="M 340.667969 194.183594 C 343.597656 194.503906 346.527344 193.613281 348.757812 191.699219 C 347.230469 189.214844 344.679688 187.433594 341.816406 186.859375 C 338.949219 186.285156 335.890625 186.984375 333.535156 188.707031 L 343.089844 190.808594 L 333.34375 189.917969 C 335.0625 192.273438 337.738281 193.867188 340.667969 194.183594 Z M 340.667969 194.183594 " fill-opacity="1" fill-rule="evenodd"/><path fill="#008c51" d="M 348.886719 206.351562 C 351.816406 206.671875 354.746094 205.777344 356.976562 203.867188 C 355.445312 201.382812 352.898438 199.597656 350.03125 199.027344 C 347.164062 198.453125 344.109375 199.089844 341.75 200.875 L 351.304688 202.976562 L 341.558594 202.082031 C 343.28125 204.441406 345.957031 206.035156 348.886719 206.351562 Z M 348.886719 206.351562 " fill-opacity="1" fill-rule="evenodd"/><path fill="#008c51" d="M 355.957031 217.945312 C 358.632812 218.265625 361.371094 217.4375 363.410156 215.652344 C 362.007812 213.359375 359.652344 211.703125 356.976562 211.191406 C 354.300781 210.683594 351.5625 211.257812 349.332031 212.847656 L 358.121094 214.824219 L 349.140625 213.996094 C 350.734375 216.160156 353.21875 217.628906 355.894531 217.945312 Z M 355.957031 217.945312 " fill-opacity="1" fill-rule="evenodd"/><path fill="#008c51" d="M 362.070312 228.265625 C 364.746094 228.582031 367.488281 227.753906 369.523438 225.972656 C 368.125 223.679688 365.765625 222.085938 363.089844 221.511719 C 360.414062 221.003906 357.675781 221.578125 355.445312 223.167969 L 364.238281 225.082031 L 355.253906 224.253906 C 356.847656 226.417969 359.332031 227.882812 362.007812 228.203125 Z M 362.070312 228.265625 " fill-opacity="1" fill-rule="evenodd"/><g clip-path="url(#61bc934bb3)"><path fill="#008c51" d="M 363.917969 240.113281 C 366.339844 241.324219 369.144531 241.453125 371.691406 240.496094 C 371.117188 237.820312 369.460938 235.527344 367.167969 234.191406 C 364.8125 232.789062 362.007812 232.46875 359.460938 233.234375 L 367.105469 238.011719 L 358.949219 234.253906 C 359.714844 236.863281 361.5625 239.03125 363.984375 240.242188 Z M 363.917969 240.113281 " fill-opacity="1" fill-rule="evenodd"/></g><path fill="#008c51" d="M 356.273438 245.785156 C 357.484375 248.203125 359.652344 250.050781 362.199219 250.816406 C 363.347656 248.394531 363.472656 245.527344 362.453125 243.042969 C 361.433594 240.496094 359.460938 238.523438 356.910156 237.566406 L 360.035156 245.976562 L 355.894531 238.011719 C 354.9375 240.558594 355.066406 243.363281 356.210938 245.785156 Z M 356.273438 245.785156 " fill-opacity="1" fill-rule="evenodd"/><path fill="#008c51" d="M 346.019531 235.273438 C 345.574219 237.949219 346.273438 240.6875 347.929688 242.851562 C 350.285156 241.515625 352.007812 239.285156 352.644531 236.675781 C 353.28125 234.0625 352.835938 231.257812 351.304688 228.964844 L 348.949219 237.628906 L 350.222656 228.710938 C 347.992188 230.238281 346.402344 232.597656 345.957031 235.273438 Z M 346.019531 235.273438 " fill-opacity="1" fill-rule="evenodd"/><path fill="#008c51" d="M 339.011719 227.375 C 338.566406 230.050781 339.265625 232.789062 340.921875 234.953125 C 343.28125 233.617188 345 231.386719 345.636719 228.773438 C 346.273438 226.164062 345.828125 223.359375 344.300781 221.066406 L 341.941406 229.730469 L 343.214844 220.8125 C 340.988281 222.277344 339.394531 224.699219 339.011719 227.375 Z M 339.011719 227.375 " fill-opacity="1" fill-rule="evenodd"/><path fill="#008c51" d="M 330.984375 218.582031 C 330.539062 221.257812 331.238281 223.996094 332.894531 226.164062 C 335.253906 224.824219 336.972656 222.597656 337.609375 219.984375 C 338.246094 217.371094 337.800781 214.570312 336.273438 212.277344 L 333.914062 220.941406 L 335.125 212.019531 C 332.894531 213.488281 331.304688 215.90625 330.921875 218.582031 Z M 330.984375 218.582031 " fill-opacity="1" fill-rule="evenodd"/><path fill="#008c51" d="M 321.558594 211.320312 C 321.109375 213.996094 321.8125 216.734375 323.46875 218.902344 C 325.824219 217.5625 327.546875 215.332031 328.183594 212.722656 C 328.820312 210.109375 328.375 207.308594 326.84375 205.015625 L 324.488281 213.675781 L 325.761719 204.757812 C 323.46875 206.289062 321.941406 208.644531 321.558594 211.320312 Z M 321.558594 211.320312 " fill-opacity="1" fill-rule="evenodd"/><path fill="#008c51" d="M 311.746094 214.632812 C 312.703125 217.179688 314.675781 219.21875 317.160156 220.238281 C 318.5625 217.945312 318.945312 215.144531 318.246094 212.53125 C 317.480469 209.917969 315.695312 207.753906 313.277344 206.480469 L 315.503906 215.207031 L 312.191406 206.863281 C 310.984375 209.28125 310.792969 212.085938 311.746094 214.632812 Z M 311.746094 214.632812 " fill-opacity="1" fill-rule="evenodd"/><path fill="#008c51" d="M 301.109375 206.796875 C 302.0625 209.347656 304.039062 211.382812 306.523438 212.402344 C 307.925781 210.109375 308.308594 207.308594 307.605469 204.695312 C 306.84375 202.082031 305.058594 199.917969 302.636719 198.644531 L 304.867188 207.371094 L 301.554688 199.027344 C 300.34375 201.445312 300.152344 204.25 301.109375 206.796875 Z M 301.109375 206.796875 " fill-opacity="1" fill-rule="evenodd"/><path fill="#008c51" d="M 289.832031 202.210938 C 291.679688 204.1875 294.230469 205.394531 296.96875 205.394531 C 297.414062 202.722656 296.714844 199.980469 295.058594 197.816406 C 293.402344 195.648438 290.917969 194.3125 288.175781 194.058594 L 293.527344 201.320312 L 287.347656 194.820312 C 287.09375 197.496094 288.050781 200.238281 289.832031 202.210938 Z M 289.832031 202.210938 " fill-opacity="1" fill-rule="evenodd"/><path fill="#008c51" d="M 277.539062 201.320312 C 279.386719 203.292969 281.933594 204.503906 284.671875 204.503906 C 285.121094 201.828125 284.417969 199.089844 282.761719 196.925781 C 281.105469 194.757812 278.621094 193.421875 275.945312 193.164062 L 281.296875 200.425781 L 275.117188 193.929688 C 274.863281 196.605469 275.820312 199.28125 277.601562 201.320312 Z M 277.539062 201.320312 " fill-opacity="1" fill-rule="evenodd"/><path fill="#008c51" d="M 296.777344 218.835938 C 299.261719 219.855469 302.128906 219.855469 304.546875 218.710938 C 303.847656 216.097656 302.0625 213.867188 299.644531 212.660156 C 297.222656 211.382812 294.421875 211.257812 291.871094 212.148438 L 299.769531 216.480469 L 291.425781 213.167969 C 292.382812 215.714844 294.292969 217.753906 296.777344 218.835938 Z M 296.777344 218.835938 " fill-opacity="1" fill-rule="evenodd"/><path fill="#008c51" d="M 302.128906 229.667969 C 304.613281 230.6875 307.480469 230.6875 309.964844 229.539062 C 309.261719 226.925781 307.480469 224.699219 305.058594 223.488281 C 302.636719 222.214844 299.835938 222.023438 297.285156 222.976562 L 305.1875 227.308594 L 296.839844 223.996094 C 297.796875 226.546875 299.707031 228.582031 302.191406 229.667969 Z M 302.128906 229.667969 " fill-opacity="1" fill-rule="evenodd"/><path fill="#008c51" d="M 307.671875 242.214844 C 310.15625 243.300781 313.019531 243.234375 315.441406 242.089844 C 314.742188 239.476562 312.957031 237.3125 310.535156 236.035156 C 308.117188 234.761719 305.3125 234.636719 302.765625 235.527344 L 310.664062 239.859375 L 302.320312 236.546875 C 303.273438 239.09375 305.1875 241.132812 307.671875 242.214844 Z M 307.671875 242.214844 " fill-opacity="1" fill-rule="evenodd"/><path fill="#008c51" d="M 309.390625 254.191406 C 311.875 255.273438 314.742188 255.210938 317.160156 254.066406 C 316.460938 251.453125 314.675781 249.289062 312.257812 248.011719 C 309.835938 246.738281 307.03125 246.613281 304.484375 247.503906 L 312.382812 251.835938 L 304.039062 248.523438 C 304.996094 251.070312 306.90625 253.109375 309.390625 254.191406 Z M 309.390625 254.191406 " fill-opacity="1" fill-rule="evenodd"/><path fill="#008c51" d="M 306.714844 267.441406 C 308.050781 269.800781 310.28125 271.519531 312.894531 272.15625 C 313.976562 269.671875 313.914062 266.804688 312.765625 264.382812 C 311.621094 261.898438 309.582031 259.988281 306.96875 259.160156 L 310.472656 267.441406 L 305.949219 259.671875 C 305.121094 262.21875 305.375 265.085938 306.652344 267.441406 Z M 306.714844 267.441406 " fill-opacity="1" fill-rule="evenodd"/><path fill="#008c51" d="M 306.585938 148.0625 C 309.898438 144.179688 311.429688 139.082031 310.855469 133.984375 C 305.757812 133.792969 300.789062 135.769531 297.160156 139.402344 C 293.527344 143.03125 291.617188 148 291.808594 153.097656 L 304.039062 141.375 L 293.335938 154.5625 C 298.433594 154.308594 303.273438 152.015625 306.585938 148.0625 Z M 306.585938 148.0625 " fill-opacity="1" fill-rule="evenodd"/><path fill="#008c51" d="M 322.003906 145.769531 C 323.339844 142.585938 323.277344 139.019531 321.875 135.898438 C 318.5625 136.789062 315.761719 139.082031 314.230469 142.140625 C 312.640625 145.199219 312.449219 148.765625 313.59375 152.015625 L 319.074219 142.011719 L 314.933594 152.585938 C 318.179688 151.441406 320.730469 148.957031 322.066406 145.769531 Z M 322.003906 145.769531 " fill-opacity="1" fill-rule="evenodd"/><path fill="#008c51" d="M 337.546875 135.003906 C 338.882812 131.820312 338.820312 128.253906 337.417969 125.132812 C 334.105469 126.023438 331.304688 128.316406 329.773438 131.375 C 328.183594 134.433594 327.992188 138 329.136719 141.246094 L 334.617188 131.246094 L 330.476562 141.820312 C 333.722656 140.675781 336.273438 138.191406 337.609375 135.003906 Z M 337.546875 135.003906 " fill-opacity="1" fill-rule="evenodd"/><path fill="#008c51" d="M 351.5625 124.367188 C 351.753906 120.925781 350.542969 117.550781 348.183594 115.066406 C 345.316406 117.042969 343.472656 120.035156 342.960938 123.476562 C 342.453125 126.851562 343.40625 130.355469 345.574219 133.03125 L 347.484375 121.820312 L 346.972656 133.222656 C 349.648438 131.054688 351.304688 127.871094 351.496094 124.429688 Z M 351.5625 124.367188 " fill-opacity="1" fill-rule="evenodd"/><path fill="#008c51" d="M 319.136719 111.433594 C 322.195312 112.964844 324.550781 115.703125 325.507812 119.015625 C 322.386719 120.480469 318.816406 120.609375 315.632812 119.335938 C 312.449219 118.058594 309.898438 115.511719 308.6875 112.328125 L 319.390625 116.277344 L 309.328125 110.988281 C 312.511719 109.777344 316.140625 109.90625 319.199219 111.433594 Z M 319.136719 111.433594 " fill-opacity="1" fill-rule="evenodd"/><path fill="#008c51" d="M 329.710938 106.339844 C 331.878906 107.421875 333.46875 109.332031 334.171875 111.5625 C 332.003906 112.582031 329.519531 112.644531 327.289062 111.816406 C 325.0625 110.925781 323.339844 109.140625 322.449219 106.914062 L 329.902344 109.652344 L 322.894531 105.957031 C 325.125 105.128906 327.609375 105.191406 329.773438 106.277344 Z M 329.710938 106.339844 " fill-opacity="1" fill-rule="evenodd"/><path fill="#008c51" d="M 309.898438 120.226562 C 312.066406 121.308594 313.65625 123.21875 314.296875 125.511719 C 312.128906 126.53125 309.644531 126.597656 307.414062 125.769531 C 305.1875 124.875 303.464844 123.09375 302.574219 120.863281 L 310.027344 123.601562 L 303.019531 119.90625 C 305.25 119.078125 307.734375 119.144531 309.898438 120.226562 Z M 309.898438 120.226562 " fill-opacity="1" fill-rule="evenodd"/><path fill="#008c51" d="M 300.089844 125.324219 C 302.253906 126.40625 303.847656 128.253906 304.484375 130.546875 C 302.320312 131.566406 299.835938 131.628906 297.605469 130.800781 C 295.375 129.910156 293.65625 128.125 292.765625 125.894531 L 300.21875 128.636719 L 293.210938 124.941406 C 295.4375 124.113281 297.921875 124.175781 300.089844 125.257812 Z M 300.089844 125.324219 " fill-opacity="1" fill-rule="evenodd"/><path fill="#008c51" d="M 291.679688 131.4375 C 294.039062 131.566406 296.332031 132.648438 297.859375 134.496094 C 296.265625 136.277344 294.039062 137.363281 291.679688 137.488281 C 289.324219 137.554688 286.96875 136.660156 285.3125 134.941406 L 293.210938 134.496094 L 285.3125 133.921875 C 287.03125 132.265625 289.324219 131.375 291.746094 131.4375 Z M 291.679688 131.4375 " fill-opacity="1" fill-rule="evenodd"/><path fill="#008c51" d="M 279.515625 141.183594 C 281.742188 140.292969 284.226562 140.417969 286.394531 141.4375 C 285.691406 143.730469 284.101562 145.644531 281.933594 146.664062 C 279.769531 147.683594 277.285156 147.808594 275.054688 146.917969 L 282.125 143.285156 L 274.671875 146.027344 C 275.5625 143.796875 277.285156 142.011719 279.515625 141.183594 Z M 279.515625 141.183594 " fill-opacity="1" fill-rule="evenodd"/><path fill="#008c51" d="M 322.386719 230.429688 C 322.386719 233.171875 323.46875 235.71875 325.441406 237.566406 C 327.609375 235.910156 328.945312 233.425781 329.136719 230.6875 C 329.394531 227.945312 328.4375 225.269531 326.652344 223.296875 L 325.699219 232.214844 L 325.570312 223.234375 C 323.597656 225.082031 322.449219 227.628906 322.386719 230.367188 Z M 322.386719 230.429688 " fill-opacity="1" fill-rule="evenodd"/><path fill="#008c51" d="M 331.429688 237.691406 C 331.429688 240.433594 332.515625 242.980469 334.488281 244.828125 C 336.65625 243.171875 337.992188 240.6875 338.183594 237.949219 C 338.4375 235.207031 337.484375 232.535156 335.699219 230.558594 L 334.742188 239.476562 L 334.617188 230.496094 C 332.640625 232.34375 331.496094 234.890625 331.429688 237.628906 Z M 331.429688 237.691406 " fill-opacity="1" fill-rule="evenodd"/><path fill="#008c51" d="M 321.8125 249.988281 C 324.105469 251.453125 326.84375 251.960938 329.519531 251.324219 C 329.265625 248.648438 327.925781 246.164062 325.824219 244.445312 C 323.660156 242.789062 320.921875 242.089844 318.246094 242.535156 L 325.1875 248.203125 L 317.542969 243.425781 C 317.988281 246.101562 319.519531 248.460938 321.8125 249.988281 Z M 321.8125 249.988281 " fill-opacity="1" fill-rule="evenodd"/><path fill="#008c51" d="M 312.765625 229.15625 C 313.722656 231.707031 315.695312 233.742188 318.179688 234.761719 C 319.582031 232.46875 319.964844 229.667969 319.265625 227.054688 C 318.5 224.441406 316.714844 222.277344 314.296875 221.003906 L 316.523438 229.730469 L 313.210938 221.386719 C 312 223.804688 311.8125 226.609375 312.765625 229.15625 Z M 312.765625 229.15625 " fill-opacity="1" fill-rule="evenodd"/><path fill="#008c51" d="M 256.453125 69.457031 C 256.390625 66.207031 257.726562 63.085938 260.085938 60.855469 C 262.632812 62.832031 264.289062 65.824219 264.605469 69.074219 C 264.925781 72.320312 263.84375 75.507812 261.613281 77.929688 L 260.402344 67.226562 L 260.277344 77.992188 C 257.855469 75.824219 256.453125 72.703125 256.453125 69.457031 Z M 256.453125 69.457031 " fill-opacity="1" fill-rule="evenodd"/><path fill="#008c51" d="M 259.320312 51.425781 C 258.109375 47.667969 258.554688 43.527344 260.53125 40.089844 C 264.226562 41.488281 267.21875 44.355469 268.683594 48.050781 C 270.148438 51.746094 270.085938 55.886719 268.367188 59.453125 L 263.140625 47.351562 L 266.835938 59.964844 C 263.269531 58.242188 260.53125 55.1875 259.320312 51.363281 Z M 259.320312 51.425781 " fill-opacity="1" fill-rule="evenodd"/><path fill="#008c51" d="M 237.46875 42.507812 C 238.871094 39.960938 241.292969 38.113281 244.160156 37.414062 C 245.304688 40.089844 245.242188 43.144531 244.03125 45.820312 C 242.820312 48.496094 240.527344 50.535156 237.789062 51.425781 L 241.609375 42.507812 L 236.707031 50.917969 C 235.8125 48.113281 236.070312 45.058594 237.535156 42.507812 Z M 237.46875 42.507812 " fill-opacity="1" fill-rule="evenodd"/><path fill="#008c51" d="M 249.320312 52.636719 C 249.253906 49.390625 250.59375 46.269531 252.949219 44.039062 C 255.496094 46.011719 257.152344 49.007812 257.472656 52.253906 C 257.792969 55.503906 256.707031 58.691406 254.480469 61.109375 L 253.269531 50.410156 L 253.140625 61.175781 C 250.71875 59.007812 249.320312 55.886719 249.320312 52.636719 Z M 249.320312 52.636719 " fill-opacity="1" fill-rule="evenodd"/><path fill="#008c51" d="M 245.558594 33.78125 C 245.558594 30.535156 246.835938 27.410156 249.191406 25.183594 C 251.738281 27.15625 253.394531 30.152344 253.714844 33.398438 C 254.03125 36.648438 252.949219 39.832031 250.785156 42.253906 L 249.574219 31.550781 L 249.445312 42.316406 C 247.027344 40.152344 245.625 37.03125 245.625 33.78125 Z M 245.558594 33.78125 " fill-opacity="1" fill-rule="evenodd"/><path fill="#008c51" d="M 231.863281 30.277344 C 231.863281 27.03125 233.136719 23.910156 235.496094 21.679688 C 238.042969 23.652344 239.699219 26.648438 240.019531 29.894531 C 240.335938 33.144531 239.253906 36.332031 237.023438 38.75 L 235.8125 28.050781 L 235.6875 38.816406 C 233.265625 36.648438 231.863281 33.527344 231.863281 30.277344 Z M 231.863281 30.277344 " fill-opacity="1" fill-rule="evenodd"/><path fill="#008c51" d="M 220.460938 21.613281 C 220.460938 18.367188 221.734375 15.246094 224.15625 13.015625 C 226.703125 14.988281 228.359375 17.984375 228.679688 21.234375 C 228.933594 24.480469 227.914062 27.667969 225.683594 30.085938 L 224.476562 19.386719 L 224.347656 30.152344 C 221.925781 27.984375 220.523438 24.863281 220.523438 21.613281 Z M 220.460938 21.613281 " fill-opacity="1" fill-rule="evenodd"/><path fill="#a5d6c1" d="M 176.824219 60.792969 C 180.265625 59.644531 183.070312 57.035156 184.535156 53.722656 C 181.476562 51.746094 177.71875 51.109375 174.148438 52 C 170.644531 52.894531 167.589844 55.25 165.867188 58.433594 L 177.652344 55.695312 L 166.316406 59.835938 C 169.5 61.554688 173.320312 61.875 176.761719 60.726562 Z M 176.824219 60.792969 " fill-opacity="1" fill-rule="evenodd"/><path fill="#a5d6c1" d="M 199.25 60.347656 C 195.808594 59.136719 193.007812 56.585938 191.539062 53.273438 C 194.597656 51.300781 198.355469 50.664062 201.925781 51.554688 C 205.429688 52.445312 208.484375 54.804688 210.207031 57.988281 L 198.421875 55.25 L 209.757812 59.390625 C 206.574219 61.109375 202.753906 61.429688 199.3125 60.28125 Z M 199.25 60.347656 " fill-opacity="1" fill-rule="evenodd"/><path fill="#a5d6c1" d="M 179.753906 119.460938 C 180.011719 113.917969 182.496094 108.761719 186.699219 105.128906 C 190.902344 108.695312 193.453125 113.917969 193.644531 119.460938 C 193.835938 125.003906 191.796875 130.355469 187.847656 134.304688 L 186.699219 116.023438 L 185.554688 134.304688 C 181.667969 130.355469 179.566406 125.003906 179.753906 119.460938 Z M 179.753906 119.460938 " fill-opacity="1" fill-rule="evenodd"/><path fill="#a5d6c1" d="M 181.859375 82.769531 C 182.050781 78.308594 184.085938 74.105469 187.464844 71.238281 C 190.839844 74.167969 192.878906 78.308594 193.070312 82.769531 C 193.261719 87.226562 191.539062 91.558594 188.417969 94.746094 L 187.464844 79.964844 L 186.507812 94.746094 C 183.324219 91.558594 181.667969 87.226562 181.859375 82.769531 Z M 181.859375 82.769531 " fill-opacity="1" fill-rule="evenodd"/><path fill="#008c51" d="M 171.855469 352.230469 C 176.761719 318.976562 175.871094 285.085938 169.054688 252.089844 C 163.511719 228.710938 141.917969 212.785156 117.964844 214.316406 C 94.011719 215.84375 74.648438 234.507812 72.164062 258.398438 C 71.398438 243.363281 77.003906 228.710938 87.515625 217.945312 C 98.089844 207.179688 112.613281 201.382812 127.648438 201.894531 C 107.136719 185.265625 77.511719 186.285156 58.148438 204.25 C 57.257812 201.382812 57.128906 198.324219 57.765625 195.394531 C 40.183594 203.421875 26.105469 217.5 18.144531 235.019531 C 24.386719 215.652344 37 198.898438 53.878906 187.558594 C 35.40625 177.238281 21.902344 159.914062 16.421875 139.464844 C 25.46875 167.300781 52.925781 184.882812 81.972656 181.445312 C 103.503906 178.960938 125.226562 183.417969 143.957031 194.183594 C 140.195312 166.601562 129.046875 141.566406 110.574219 119.015625 C 96.242188 104.109375 76.304688 96.019531 55.664062 96.65625 C 66.746094 91.941406 79.234375 91.558594 90.574219 95.699219 C 83.054688 77.671875 84.519531 57.160156 94.523438 40.34375 C 85.222656 63.59375 93.695312 90.160156 114.714844 103.726562 C 124.652344 112.644531 132.742188 123.410156 138.476562 135.515625 C 129.238281 94.746094 147.523438 52.765625 183.578125 31.679688 C 151.535156 57.863281 137.96875 100.542969 149.050781 140.417969 C 149.878906 137.234375 151.855469 134.433594 154.53125 132.585938 C 149.371094 170.871094 161.472656 209.410156 187.464844 237.949219 C 213.519531 209.410156 225.558594 170.871094 220.398438 132.585938 C 223.136719 134.496094 225.046875 137.234375 225.875 140.417969 C 236.898438 100.542969 223.390625 57.925781 191.351562 31.679688 C 227.46875 52.703125 245.75 94.746094 236.515625 135.515625 C 242.246094 123.410156 250.273438 112.644531 260.277344 103.726562 C 281.296875 90.160156 289.769531 63.59375 280.46875 40.34375 C 290.46875 57.160156 291.871094 77.671875 284.417969 95.699219 C 295.757812 91.625 308.242188 91.941406 319.328125 96.65625 C 298.6875 96.019531 278.6875 104.109375 264.417969 119.015625 C 245.941406 141.503906 234.859375 166.601562 231.035156 194.183594 C 249.828125 183.417969 271.550781 178.894531 293.019531 181.445312 C 322.066406 184.882812 349.523438 167.300781 358.566406 139.464844 C 353.089844 159.914062 339.585938 177.238281 321.109375 187.558594 C 337.992188 198.960938 350.542969 215.652344 356.847656 235.019531 C 348.820312 217.4375 334.742188 203.359375 317.226562 195.394531 C 317.863281 198.324219 317.734375 201.382812 316.84375 204.25 C 297.476562 186.285156 267.917969 185.265625 247.40625 201.894531 C 262.441406 201.382812 277.03125 207.242188 287.539062 217.945312 C 298.113281 228.648438 303.65625 243.363281 302.890625 258.398438 C 300.40625 234.507812 281.042969 215.90625 257.089844 214.316406 C 233.136719 212.785156 211.542969 228.710938 206 252.089844 C 199.25 285.085938 198.292969 318.976562 203.199219 352.230469 L 364.109375 352.230469 C 366.785156 352.230469 368.953125 354.394531 368.953125 357.136719 C 368.953125 359.8125 366.785156 361.976562 364.109375 361.976562 L 11.007812 361.976562 C 8.332031 361.976562 6.167969 359.8125 6.167969 357.136719 C 6.167969 354.460938 8.332031 352.230469 11.007812 352.230469 L 171.921875 352.230469 Z M 171.855469 352.230469 " fill-opacity="1" fill-rule="evenodd"/></svg>